<svg width="180" height="150" viewBox="0 0 180 150" fill="none" xmlns="http://www.w3.org/2000/svg">
<path d="M136.738 25.3443C140.765 33.301 141.743 97.7106 109.017 114.276C70.7156 133.664 28.6405 104.688 24.613 96.7313C20.5854 88.7746 72.5605 89.3293 91.5288 79.7279C110.497 70.1264 127.978 25.7415 136.738 25.3443Z" fill="#EACE4F"/>
<path d="M127.537 7.13659C127.412 6.83269 127.584 6.49063 127.903 6.41023L140.336 3.26791C140.708 3.17398 141.06 3.48464 141.011 3.86403L137.964 27.5701C137.918 27.9269 137.541 28.1384 137.21 27.9933L136.038 27.4806C135.908 27.4238 135.806 27.3186 135.752 27.1876L127.537 7.13659Z" fill="#917776"/>
<path d="M21.2932 84.2253C21.1397 83.9117 20.7358 83.824 20.4668 84.0458L11.4797 91.4576C11.1434 91.7349 11.2532 92.2776 11.6702 92.3997L25.2849 96.3831C25.5367 96.4568 25.8049 96.3376 25.9208 96.1006L26.3956 95.1289C26.4696 94.9775 26.4696 94.8001 26.3956 94.6488L21.2932 84.2253Z" fill="#917776"/>
</svg>
