<svg width="69" height="68" viewBox="0 0 69 68" fill="none" xmlns="http://www.w3.org/2000/svg">
<path d="M26.4988 52.6266L11.381 46.3246C11.7725 47.0513 10.2561 47.8717 9.44888 48.1911L8.34849 48.5545C6.26866 49.59 5.33172 40.8192 5.12322 36.3043L4.53751 37.964C3.89053 36.2491 2.86931 32.1902 3.96028 29.6741C5.12561 27.3506 8.55514 21.7048 12.9506 17.7096C20.2443 10.3476 34.0232 12.4155 34.5496 12.1624C34.9707 11.96 38.8709 14.6191 40.7683 15.9739L40.9214 15.2497C42.4144 13.4545 42.6907 14.5283 43.3301 14.811C44.0702 15.1381 43.7518 16.1115 43.6112 16.8581L42.9967 17.6951L44.7207 18.1957C50.6245 16.4443 60.5108 22.6509 61.2459 22.4875C61.834 22.3567 63.0781 25.8189 63.6267 27.5663L63.5825 30.5134C64.1404 31.4705 64.66 34.8866 64.85 36.4751L65.815 37.7812C66.3333 38.6272 65.7021 41.7813 59.0311 47.63C50.6923 54.9409 44.846 54.4542 43.7259 55.6959C42.8298 56.6892 37.7153 56.4654 35.2701 56.2293C31.6419 61.517 27.9108 56.0307 26.4988 52.6266Z" fill="#F71B1B" stroke="black" stroke-width="5.34189"/>
<path d="M6.07514 42.027C6.54588 45.4551 6.79354 48.2784 9.21556 47.4786C11.6376 46.6788 10.7407 44.0699 10.27 40.6417C9.79924 37.2136 10.8894 35.4232 8.46738 36.223C6.04537 37.0228 5.60439 38.5988 6.07514 42.027Z" fill="#D9D9D9"/>
<ellipse cx="4.61837" cy="6.26544" rx="4.61837" ry="6.26544" transform="matrix(-0.949567 0.313563 0.136041 0.990703 35.6192 43.7743)" fill="#D9D9D9"/>
</svg>
