<svg width="350" height="314" viewBox="0 0 350 314" fill="none" xmlns="http://www.w3.org/2000/svg">
<path d="M102.05 200.413L12.1933 209.283L89.4645 156.612L53.0629 93.1064L114.646 120.315L131.018 47.6955L164.853 105.889L230.475 47.2646L201.999 124.278L304.715 112.028L214.584 168.079L268.765 218.743L192.46 201.969L194.594 266.425L142.252 216.395L80.2001 267.875L102.05 200.413Z" fill="#B39D3A"/>
<path d="M109.686 193.694L19.0616 204.437L97.1012 149.893L52.8628 93.7723L122.282 113.595L131.201 46.7903L172.49 99.1694L238.112 40.5453L209.636 117.559L312.272 109.483L222.221 161.36L268.597 218.396L200.096 195.249L194.127 265.796L149.889 209.675L87.8368 261.155L109.686 193.694Z" fill="#EACE4F"/>
<path d="M101.247 176.613L94.2041 179.479C92.9931 180.011 92.133 180.48 91.6238 180.885C87.9827 183.437 85.5144 186.484 84.2188 190.025C83.4606 192.158 83.2822 193.717 83.6836 194.704C84.0574 195.623 84.8213 196.184 85.9752 196.389C87.0283 196.833 89.4859 196.586 93.3479 195.65C97.9262 193.549 100.439 191.099 100.886 188.3C101.747 186.126 101.867 182.23 101.247 176.613ZM99.5968 165.685C99.2524 163.961 98.8835 162.129 98.4901 160.187L111.344 153.768C111.808 156.077 112.22 158.309 112.581 160.462L116.153 159.009L116.456 170.425L114.21 171.339C115.248 180.712 115.056 187.551 113.635 191.857C110.582 200.435 104.385 206.645 95.0418 210.486L94.4804 210.714C90.1253 212.486 85.9659 213.326 82.0023 213.233C76.5243 213.122 72.9617 211.042 71.3144 206.993C69.7778 203.217 70.0768 198.396 72.2113 192.531C73.2509 189.53 75.1771 185.931 77.99 181.733C76.1209 180.55 74.7641 178.921 73.9197 176.846C72.6323 173.682 72.9411 169.372 74.8462 163.918C77.5826 156.023 82.3218 149.396 89.0636 144.036C91.2428 142.277 93.7741 140.652 96.6574 139.161C97.0455 139.043 97.7537 138.834 98.7819 138.535L100.345 138.137C101.543 137.768 102.818 137.686 104.17 137.889C106.148 137.878 107.933 138.123 109.526 138.625L102.357 151.416C100.84 151.002 98.8309 150.888 96.3286 151.073C91.6962 153.235 88.5208 156.689 86.8026 161.433C86.0369 163.449 85.8824 165.019 86.3392 166.142C87.0037 167.775 88.8598 168.487 91.9076 168.278C92.869 168.204 93.7478 168.025 94.5442 167.741L99.5968 165.685ZM146.635 186.997C147.283 192.88 147.789 197.095 148.152 199.644L147.713 199.882C143.704 202.505 139.187 205.73 134.162 209.559C133.665 206.193 133.197 202.556 132.758 198.651C131.732 199.346 130.662 200.078 129.548 200.849L120.699 189.042C124.153 187.201 127.977 184.951 132.17 182.294C137.666 176.211 139.757 171.553 138.442 168.321L138.234 167.811C137.569 166.178 132.97 164.083 124.435 161.528C119.692 158.739 116.718 155.864 115.514 152.904C112.939 146.576 113.942 140.854 118.523 135.738C120.251 133.845 122.606 131.737 125.586 129.414C125.075 126.013 124.522 122.511 123.928 118.906C127.109 116.977 131.433 114.544 136.9 111.606C137.495 113.069 138.239 116.652 139.132 122.356L149.375 131.156C146.715 132.318 144.467 133.471 142.632 134.614C135.433 138.653 131.283 142.245 130.182 145.389C129.834 146.483 129.84 147.472 130.2 148.356C130.809 149.853 132.506 151.344 135.291 152.828C146.527 157.735 152.65 161.43 153.661 163.914L154.076 164.934C155.901 171.369 153.763 178.346 147.661 185.865C147.336 186.235 146.994 186.613 146.635 186.997ZM168.044 180.844L185.615 170.959C185.928 174.361 186.654 179.994 187.792 187.859L187.272 188.19C182.257 191.459 176.599 195.486 170.297 200.271C169.322 193.49 168.572 187.014 168.044 180.844ZM177.362 103.888C179.179 111.278 181.075 124.565 183.05 143.748L184.453 161.379L167.132 170.27L163.903 134.406C162.909 127.871 161.987 120.731 161.137 112.987C165.127 110.611 170.535 107.577 177.362 103.888ZM203.251 118.397L208.293 116.168C208.111 111.919 208.088 106.892 208.224 101.087L219.173 95.9778L219.58 111.159L225.264 108.609L225.703 118.899L219.866 121.512L220.014 127.579L226.974 124.509L227.392 134.748L220.279 137.88L220.731 153.757L209.067 160.763C209.022 160.068 208.994 158.096 208.981 154.85L208.962 142.96L203.972 145.169L204.399 160.402L192.736 167.408C192.691 166.712 192.662 164.741 192.65 161.494L192.634 150.198L187.899 152.303L187.919 141.826L192.603 139.742C192.573 138.009 192.523 135.987 192.455 133.675L186.21 136.454L186.209 125.926L192.016 123.385C191.792 119.034 191.751 113.816 191.893 107.731L202.841 102.622L203.251 118.397ZM208.783 126.437L203.538 128.75L203.686 134.816L208.931 132.504C208.901 130.772 208.851 128.749 208.783 126.437ZM249.588 97.0468C249.511 96.7607 249.438 96.5327 249.369 96.3625C249.064 95.614 248.608 95.1256 247.999 94.8973L248.466 94.2908C247.479 93.4236 246.356 93.246 245.097 93.7582C243.804 94.2842 242.905 95.1456 242.401 96.3422C241.903 97.457 241.815 98.7024 242.136 100.078C242.227 100.398 242.314 100.661 242.397 100.865C242.798 101.851 243.434 102.584 244.303 103.063C245.22 103.563 246.154 103.619 247.107 103.231C248.264 102.76 249.047 101.907 249.456 100.67C249.838 99.5623 249.882 98.3547 249.588 97.0468ZM268.678 122.769C268.601 122.483 268.528 122.255 268.459 122.085C268.141 121.302 267.677 120.797 267.069 120.569L267.557 120.013C266.57 119.146 265.446 118.968 264.188 119.481C262.895 120.007 261.989 120.851 261.471 122.014C260.972 123.128 260.891 124.391 261.227 125.801C261.317 126.121 261.404 126.383 261.487 126.587C261.889 127.574 262.517 128.29 263.372 128.735C264.255 129.248 265.19 129.304 266.177 128.903C267.334 128.432 268.116 127.578 268.525 126.341C268.874 125.248 268.925 124.057 268.678 122.769ZM245.798 117.266C243.358 117.506 241.063 117.032 238.914 115.844C235.801 114.137 233.413 111.241 231.752 107.159C231.392 106.274 231.046 105.324 230.712 104.31C229.485 99.7334 229.86 95.1986 231.839 90.7054C233.94 86.1229 237.169 82.9457 241.524 81.1738C248.09 78.5022 253.641 78.8412 258.177 82.1909L256.787 84.184C257.151 84.5912 257.484 84.9712 257.786 85.3241C259.318 81.4884 261.036 77.2799 262.94 72.6985L264.562 71.8602C267.472 70.2401 270.885 68.4942 274.803 66.6226C273.933 69.3562 272.743 72.9136 271.234 77.2948L261.227 106.647C267.542 104.236 272.889 104.658 277.267 107.913L275.877 109.907C277.182 111.359 278.09 112.714 278.602 113.973C278.962 114.858 279.331 116.155 279.71 117.865C280.908 123.246 280.656 127.988 278.955 132.091C277.153 136.631 273.82 139.891 268.954 141.87C264.974 143.49 261.317 143.372 257.984 141.515C255.391 140.112 253.314 137.883 251.754 134.83L247.72 146.405L233.813 156.524C237.503 142.492 241.498 129.406 245.798 117.266Z" fill="white"/>
</svg>
