<svg width="629" height="577" viewBox="0 0 629 577" fill="none" xmlns="http://www.w3.org/2000/svg">
<path d="M214.185 266.642L82.0103 192.93L248.106 200.16L244.218 98.7515L318.626 184.787L403.843 114.748L394.528 223.516L523.408 240.101L418.233 286.965L538.141 407.38L384.312 353.446L362.042 487.489L320.121 369.345L234.238 447.154L244.218 330.617L114.071 330.617L214.185 266.642Z" fill="#B81212"/>
<path d="M200.16 279.667L80.2349 191.449L234.081 213.186L244.061 96.6488L304.6 197.813L389.818 127.773L380.503 236.541L524.116 239.543L404.208 299.99L535.46 404.8L370.287 366.472L361.83 486.489L306.096 382.371L220.213 460.18L230.193 343.643L98.8092 336.069L200.16 279.667Z" fill="#F71B1B"/>
<path d="M146.22 291.531C141.573 301.123 138.306 308.036 136.417 312.271L135.52 312.213C126.895 312.372 116.916 312.963 105.586 313.988C108.053 308.378 110.822 302.384 113.894 296.007C111.664 296.084 109.331 296.177 106.894 296.284L104.711 269.804C111.743 270.305 119.729 270.538 128.669 270.502C142.877 266.492 150.527 261.392 151.618 255.203L151.79 254.226C152.342 251.099 147.334 243.499 136.768 231.426C132.207 222.629 130.426 215.396 131.425 209.729C133.562 197.612 140.573 189.847 152.459 186.435C156.908 185.205 162.518 184.246 169.289 183.559C171.767 177.884 174.28 172.013 176.827 165.946C183.526 166.053 192.45 166.485 203.601 167.242C203.107 170.043 200.809 176.22 196.706 185.774L203.895 209.006C198.725 208.229 194.194 207.833 190.301 207.818C175.452 207.081 165.682 208.582 160.993 212.323C159.414 213.656 158.475 215.17 158.177 216.864C157.671 219.73 158.831 223.629 161.656 228.56C174.089 246.806 179.887 258.307 179.048 263.063L178.704 265.017C175.322 276.578 165.377 285.169 148.87 290.789C148.019 291.042 147.136 291.289 146.22 291.531ZM251.214 228.634C251.371 228.125 251.478 227.707 251.536 227.381C251.789 225.948 251.56 224.766 250.851 223.835L252.145 223.358C251.47 221.089 249.927 219.742 247.517 219.317C245.041 218.881 242.846 219.333 240.93 220.675C239.102 221.897 237.775 223.712 236.947 226.119C236.779 226.693 236.66 227.176 236.591 227.567C236.258 229.456 236.525 231.183 237.391 232.746C238.311 234.386 239.683 235.367 241.507 235.688C243.722 236.079 245.733 235.527 247.542 234.032C249.186 232.71 250.41 230.911 251.214 228.634ZM255.682 286.147C255.84 285.637 255.947 285.22 256.004 284.894C256.268 283.396 256.046 282.181 255.337 281.25L256.613 280.87C255.938 278.602 254.396 277.255 251.985 276.83C249.51 276.394 247.32 276.814 245.416 278.09C243.588 279.313 242.255 281.16 241.416 283.632C241.247 284.206 241.129 284.689 241.06 285.08C240.727 286.969 240.999 288.663 241.877 290.161C242.731 291.79 244.103 292.77 245.992 293.103C248.207 293.494 250.219 292.942 252.028 291.447C253.606 290.113 254.824 288.347 255.682 286.147ZM226.065 255.837C222.114 253.864 219.069 250.942 216.93 247.073C213.818 241.486 212.951 234.784 214.33 226.967C214.628 225.273 215.009 223.493 215.473 221.627C217.985 213.472 222.903 206.917 230.225 201.961C237.819 196.986 245.785 195.234 254.124 196.704C266.697 198.921 274.837 204.756 278.543 214.209L274.514 215.917C274.679 216.886 274.823 217.785 274.946 218.612C280.958 214.232 287.609 209.46 294.901 204.297L298.177 204.573C304.166 204.89 311.045 205.498 318.812 206.398C314.866 209.732 309.643 214.017 303.145 219.252L259.765 254.424C271.705 256.798 279.454 262.564 283.012 271.722L278.983 273.43C279.581 276.894 279.668 279.831 279.243 282.241C278.944 283.935 278.264 286.267 277.203 289.237C273.874 298.591 268.948 305.581 262.422 310.207C255.326 315.404 247.121 317.181 237.805 315.539C230.183 314.195 224.72 310.511 221.416 304.488C218.806 299.863 217.774 294.475 218.321 288.325L201.08 302.111L170.179 304.219C189.248 286.356 207.877 270.228 226.065 255.837ZM380.403 342.798C365.333 353.978 347.897 357.822 328.093 354.33C312.067 351.504 300.536 343.762 293.498 331.102C287.029 319.416 285.235 305.397 288.118 289.045C288.739 285.528 289.595 281.816 290.686 277.911C295.849 260.82 306.163 247.089 321.627 236.717C337.517 226.22 354.158 222.504 371.552 225.571C386.861 228.27 397.971 235.166 404.881 246.259C407.913 251.16 411.119 257.737 414.5 265.99C415.693 273.32 415.807 279.722 414.842 285.194C412.522 298.353 406.346 308.045 396.315 314.269C389.717 318.547 380.815 319.697 369.61 317.722L368.242 317.481C365.832 317.056 362.535 316.709 358.35 316.442C353.284 316.22 349.514 315.891 347.038 315.454C333.553 313.077 327.776 306.416 329.705 295.471C330.073 293.387 330.963 290.622 332.377 287.177C334.94 280.643 338.681 275.425 343.6 271.524C349.286 267.086 355.419 265.447 361.999 266.607C365.566 267.706 367.751 268.461 368.552 268.87C373.239 271.242 374.944 276.043 373.669 283.274C373.038 286.857 371.354 291.833 368.619 298.202C377.023 299.684 381.759 297.395 382.827 291.337C383.068 289.969 383.664 287.925 384.614 285.204C385.64 282.429 386.286 280.293 386.55 278.795C386.975 276.384 386.586 274.401 385.382 272.846C382.445 262.454 375.375 256.27 364.17 254.294C352.835 252.296 342.745 254.278 333.902 260.242C325.507 265.949 319.446 274.418 315.719 285.65C314.857 288.252 314.266 290.465 313.944 292.289C312.428 300.888 313.632 308.725 317.557 315.798C321.75 323.254 328.081 327.729 336.55 329.222C341.762 330.141 345.63 330.487 348.155 330.261C351.55 330.054 355.093 328.629 358.782 325.989L380.403 342.798ZM426.513 345.287L462.777 347.046C459.995 352.534 455.705 361.819 449.905 374.902L448.796 374.908C438.017 375.09 425.53 375.81 411.337 377.069C416.348 365.795 421.406 355.2 426.513 345.287ZM514.446 236.863C510.137 249.873 500.3 271.95 484.934 303.095L470.183 331.325L435.253 328.289L464.686 270.507C469.432 259.589 474.866 247.818 480.988 235.195C489.349 235.393 500.502 235.949 514.446 236.863Z" fill="white"/>
</svg>
