<svg width="56" height="103" viewBox="0 0 56 103" fill="none" xmlns="http://www.w3.org/2000/svg">
<path d="M54.1088 12.0183C46.5182 16.1587 46.5182 16.8487 40.3077 16.8487V31.2189C45.7127 31.0828 50.5613 30.5622 54.1088 29.9598V12.0183Z" fill="white"/>
<path d="M25.8165 30.5519V44.451C30.8796 45.053 35.8363 46.4099 40.3077 46.081V31.2189C35.7259 31.3343 30.7442 31.1735 25.8165 30.5519Z" fill="white"/>
<path d="M12.0154 52.0826C16.3968 54.3627 21.1149 55.9166 25.8165 56.9307V44.451C21.2089 43.9031 16.5133 42.728 12.0154 41.0007V52.0826Z" fill="white"/>
<path d="M25.8165 14.3997C21.084 12.8121 16.3358 10.7768 12.0154 8.66916V27.264C16.287 28.9082 21.0263 29.9477 25.8165 30.5519V14.3997Z" fill="white"/>
<path d="M1.66455 20.9891L1.66455 36.8604C4.88609 39.2505 8.38639 39.6071 12.0154 41.0007V27.264C8.05133 25.7382 4.49003 23.6917 1.66455 20.9891Z" fill="white"/>
<path d="M40.3077 58.5591C45.8086 58.6608 50.6606 58.1954 54.1088 57.5621V43.7609C50.7753 44.7239 45.9244 45.6679 40.3077 46.081V58.5591Z" fill="white"/>
<path d="M1.66455 90.6848C1.66455 90.6848 1.66455 69.0235 1.66455 44.451M54.1088 57.5621C50.6606 58.1954 45.8086 58.6608 40.3077 58.5591M54.1088 57.5621V43.7609M54.1088 57.5621V102.416M1.66455 44.451C4.71437 47.6138 8.23993 50.1178 12.0154 52.0826M1.66455 44.451C1.66455 41.9444 1.66455 39.4076 1.66455 36.8604M12.0154 8.66916C8.10532 6.76172 4.54553 4.79508 1.66455 3.04761C1.66455 8.62344 1.66455 14.7086 1.66455 20.9891M12.0154 8.66916C16.3358 10.7768 21.084 12.8121 25.8165 14.3997M12.0154 8.66916V27.264M12.0154 52.0826C16.3968 54.3627 21.1149 55.9166 25.8165 56.9307M12.0154 52.0826V41.0007M25.8165 14.3997C30.8413 16.0852 35.8485 16.6223 40.3077 16.8487M25.8165 14.3997V30.5519M25.8165 56.9307C30.8059 58.0069 35.7769 58.4754 40.3077 58.5591M25.8165 56.9307V44.451M40.3077 16.8487C46.5182 16.8487 46.5182 16.1587 54.1088 12.0183V29.9598M40.3077 16.8487V31.2189M40.3077 58.5591V46.081M54.1088 29.9598V43.7609M54.1088 29.9598C50.5613 30.5622 45.7127 31.0828 40.3077 31.2189M1.66455 20.9891C1.66455 26.2047 1.66455 31.5551 1.66455 36.8604M1.66455 20.9891C4.49003 23.6917 8.05133 25.7382 12.0154 27.264M1.66455 20.9891L1.66455 36.8604M54.1088 43.7609C50.7753 44.7239 45.9244 45.6679 40.3077 46.081M1.66455 36.8604C4.88609 39.2505 8.38639 39.6071 12.0154 41.0007M25.8165 30.5519V44.451M25.8165 30.5519C30.7442 31.1735 35.7259 31.3343 40.3077 31.2189M25.8165 30.5519C21.0263 29.9477 16.287 28.9082 12.0154 27.264M25.8165 44.451C30.8796 45.053 35.8363 46.4099 40.3077 46.081M25.8165 44.451C21.2089 43.9031 16.5133 42.728 12.0154 41.0007M40.3077 46.081V31.2189M12.0154 41.0007V27.264" stroke="#7E7878" stroke-width="2.76023"/>
</svg>
