<svg width="335" height="266" viewBox="0 0 335 266" fill="none" xmlns="http://www.w3.org/2000/svg">
<ellipse cx="16.8023" cy="54.7734" rx="16.8023" ry="54.7734" transform="matrix(0.481706 -0.876333 -0.825343 -0.564632 214.185 236.804)" fill="black"/>
<ellipse cx="14.9925" cy="28.0573" rx="14.9925" ry="28.0573" transform="matrix(0.00928227 -0.999957 -0.998959 -0.0456258 304.499 164.435)" fill="black"/>
<ellipse cx="15.0265" cy="27.9807" rx="15.0265" ry="27.9807" transform="matrix(-0.0713737 -0.99745 -0.998657 0.051814 315.802 120.495)" fill="black"/>
<ellipse cx="15.0399" cy="27.9504" rx="15.0399" ry="27.9504" transform="matrix(-0.165747 -0.986168 -0.986006 0.166711 304.198 73.8508)" fill="black"/>
<path d="M109.497 39.0116C54.9629 47.926 -5.60908 65.5818 14.3968 126.562C45.6708 201.209 93.9742 158.971 130.883 132.998C157.97 128.57 212.688 160.613 226.648 153.9C251.574 147.146 244.44 109.227 240.86 87.3263C237.707 68.0367 223.738 38.8879 195.083 28.3437C173.282 20.3218 141.15 25.7002 109.497 39.0116Z" fill="black"/>
<ellipse cx="14.4245" cy="26.0657" rx="14.4245" ry="26.0657" transform="matrix(-0.301185 -0.953566 -0.943845 0.330388 280.158 32.9513)" fill="black"/>
</svg>
