<svg width="319" height="242" viewBox="0 0 319 242" fill="none" xmlns="http://www.w3.org/2000/svg">
<ellipse cx="16.8023" cy="54.7734" rx="16.8023" ry="54.7734" transform="matrix(0.673843 0.738875 -0.669854 0.742493 180.759 9.19409)" fill="black"/>
<ellipse cx="14.9925" cy="28.0573" rx="14.9925" ry="28.0573" transform="matrix(0.243604 0.969875 -0.960378 0.278699 285.535 58.3566)" fill="black"/>
<ellipse cx="15.0265" cy="27.9807" rx="15.0265" ry="27.9807" transform="matrix(0.16461 0.986359 -0.982944 0.183907 306.831 98.4193)" fill="black"/>
<ellipse cx="15.0399" cy="27.9504" rx="15.0399" ry="27.9504" transform="matrix(0.070224 0.997531 -0.997599 0.0692494 306.488 146.484)" fill="black"/>
<path d="M125.4 226.025C70.2968 230.153 7.27326 227.199 12.4155 163.228C25.3052 83.3269 82.1693 113.054 124.142 129.645C151.511 127.595 197.185 83.6097 212.33 86.8603C238.145 87.5785 240.106 126.113 241.763 148.242C243.223 167.733 236.483 199.345 211.1 216.318C191.79 229.23 159.293 231.539 125.4 226.025Z" fill="black"/>
<ellipse cx="14.4245" cy="26.0657" rx="14.4245" ry="26.0657" transform="matrix(-0.0690825 0.997611 -0.995012 -0.099751 292.714 191.883)" fill="black"/>
</svg>
