<svg xmlns="http://www.w3.org/2000/svg" viewBox="0 0 1208.44 188.71"><defs><style>.a{fill:#eace4f;}.b{fill:#917776;}</style></defs><path class="a" d="M1202.15,43.94c5.94,11.73,7.38,106.69-40.86,131.11-56.47,28.58-118.5-14.14-124.43-25.87s70.68-10.91,98.64-25.06S1189.24,44.53,1202.15,43.94Z" transform="translate(-0.02 -4.37)"/><path class="b" d="M1188.59,10.1a.79.79,0,0,1,.54-1.07l18.33-4.63a.8.8,0,0,1,1,.88L1204,40.22a.8.8,0,0,1-1.11.63l-1.73-.76a.8.8,0,0,1-.42-.43Z" transform="translate(-0.02 -4.37)"/><path class="b" d="M1026,125.75a.79.79,0,0,0-1.22-.27l-13.25,10.93a.81.81,0,0,0,.29,1.39l20.07,5.87a.79.79,0,0,0,.93-.42l.7-1.43a.8.8,0,0,0,0-.71Z" transform="translate(-0.02 -4.37)"/><path d="M0,161.84l26-6a12.88,12.88,0,0,0,2.85,8.41,9.35,9.35,0,0,0,7.61,3.49q9.67-1,16.26-10.63,3.89-5.47,10.94-23.23,5.09-12.54,9.91-25.22,7.45-17.2,14.59-31.24Q79.55,78.9,62,81.36l7-23.79Q81.38,56.46,100.33,55,120,53.45,135,53.21l-7.3,23.07q-15.3,0-24.18.32l6.82,3.72q-3.09,6.44-5.95,13.72-5.07,12.61-15.78,44.8-10.31,31-25.69,43.93-12.06,10.32-31.64,10.31-20.85,0-28.39-17.36Q.82,171,0,161.84ZM198.26,73l-5.47,3.65a41.39,41.39,0,0,1,2.61,13.08,69.94,69.94,0,0,1-1.19,11q-3.79,22.2-16.49,35.29-13.87,14.43-35.45,14.43-17.6,0-27.51-12.21-9.12-11.27-9.12-29.26,0-3.89.4-8.25a53.64,53.64,0,0,1,16.89-33.3q15-14.19,34.17-14.19Q186.2,53.21,198.26,73ZM172.88,103a22.68,22.68,0,0,0,.56-4.36q0-7.36-4.44-11.26l3.88-2.22q-5.07-10.55-17.44-10.55t-20.86,8q-7.85,7.69-9.75,20.38a31.75,31.75,0,0,0-.48,5A24.53,24.53,0,0,0,130,124.25a18.73,18.73,0,0,0,15.23,7.22q11.17,0,18.79-8.88A39.54,39.54,0,0,0,172.88,103Zm27,29.58,2.22-7.22q.72-2.46,3.17-10.07a309.37,309.37,0,0,1,12.06-29.42q2-4.66,6.34-13.24-6.9,1.11-20.93,3.09l5.55-19q10-.87,25.05-2.06,15.78-1.18,27.76-1.42l-5.87,18.47q-12.21,0-19.27.24l5.47,3q-1.9,3.64-4.76,10.94-3.65,9-10.06,29.42-2.31,7.54-4.37,15.62,2.07-.07,7.06-.39l9.83-.32-5.86,18.48q-14.83,0-19.35.23-7.31.57-33.15,3.89l5.55-19.11,6.35-.63Q195.4,132.89,199.84,132.58Zm64.07-77.23,23.32-5.24a436.61,436.61,0,0,1,9.91,51.54q.39,0,2.85-5.86l2.54-6.19q4.13-9.67,18.16-35l2.61-.23q7.14-.89,16.5-1.43-8.49,15.47-17.92,36.71Q318.55,97.3,312,119q-1.83,5.79-6.9,23.31L281,148.2a19.6,19.6,0,0,0,.32-4.12q0-13.64-3.41-36.16Q276.59,99,275.65,99l-8.33,20a89.26,89.26,0,0,0-6.9,25.53l-24,5.95Q240.6,135,245.83,119a302.65,302.65,0,0,1,12-29.42q3.48-7.6,9.67-19a6.25,6.25,0,0,0,.4-1.9,21.94,21.94,0,0,0-1.67-6.58Q264.15,56.3,263.91,55.35Zm197.61-2.14Q459,59.15,453,78.5t-9.19,28.55q-9,25.36-20.54,35.2-9.77,8.17-25.38,8.17-7.84,0-15.62-5.55-11.1-8.09-11.1-23.79a57.9,57.9,0,0,1,1.9-14q6-23.64,19-51.39l20.78-2.45q-6.9,16.65-9,21.72-7.69,19.59-10.79,32.12a43.1,43.1,0,0,0-1,9.2q0,13.95,10,13.95,11.42,0,20.06-23.15l20-53.84Zm37.43,18a50.68,50.68,0,0,0-9,1q-9.35,2.22-13.32,7.61a6.74,6.74,0,0,0-1.34,4q0,3.49,3.64,8.73a85.18,85.18,0,0,1,5.55,8.56Q489,111.4,489,117.2v1.58q-1.26,14.35-16.49,24.43-8.25,5.55-26.64,10.14l-4.44-23.7a63.07,63.07,0,0,0,12.52-2.78q13.17-4.52,13.17-12.05V114a19,19,0,0,0-2.46-8.57q-1.35-2-4.68-7.29Q454,88.72,454,81.83q0-14.74,11-21.25,8.48-4.92,25.53-9.2Zm37.9,68.9,20.77-4.76a10.27,10.27,0,0,0,2.3,6.75,7.54,7.54,0,0,0,6.11,2.77q7.77-.7,13-8.48,3.09-4.37,8.73-18.56,4.13-10.06,7.92-20.22,6-13.71,11.74-25-7,1.11-20.93,3.09l5.55-19q9.91-.87,25.05-2.06,15.7-1.18,27.76-1.42L639,71.68q-12.21,0-19.35.24l5.47,3q-2.45,5.16-4.75,10.94Q616.3,96,607.74,121.72q-8.25,24.81-20.62,35.12-9.6,8.25-25.29,8.25-16.67,0-22.68-13.88Q537.48,147.49,536.85,140.11ZM708.13,73l-5.47,3.65a41.39,41.39,0,0,1,2.61,13.08,69.94,69.94,0,0,1-1.19,11q-3.81,22.2-16.49,35.29-13.87,14.43-35.45,14.43-17.6,0-27.51-12.21-9.12-11.27-9.12-29.26,0-3.89.4-8.25A53.64,53.64,0,0,1,632.8,67.4q15-14.19,34.17-14.19Q696.07,53.21,708.13,73ZM682.75,103a22.68,22.68,0,0,0,.56-4.36q0-7.36-4.44-11.26l3.88-2.22q-5.07-10.55-17.44-10.55t-20.86,8q-7.85,7.69-9.75,20.38a31.75,31.75,0,0,0-.48,5,24.53,24.53,0,0,0,5.63,16.25,18.73,18.73,0,0,0,15.23,7.22q11.17,0,18.79-8.88A39.54,39.54,0,0,0,682.75,103Zm27,29.58,2.22-7.22q.72-2.46,3.17-10.07a309.37,309.37,0,0,1,12.06-29.42q2-4.66,6.34-13.24-6.9,1.11-20.93,3.09l5.55-19q10-.87,25-2.06,15.8-1.18,27.76-1.42l-5.87,18.47q-12.21,0-19.27.24l5.47,3a118.73,118.73,0,0,0-4.75,10.94q-3.66,9-10.08,29.42-2.29,7.54-4.36,15.62,2.07-.07,7.06-.39l9.83-.32-5.86,18.48q-14.83,0-19.35.23-7.31.57-33.15,3.89l5.55-19.11,6.35-.63Q705.28,132.89,709.71,132.58Zm64.07-77.23,23.32-5.24A436.61,436.61,0,0,1,807,101.65q.39,0,2.85-5.86l2.54-6.19q4.13-9.67,18.16-35l2.61-.23q7.14-.89,16.5-1.43-8.49,15.47-17.92,36.71-3.33,7.7-9.91,29.42-1.83,5.79-6.9,23.31l-24.11,5.87a19.6,19.6,0,0,0,.32-4.12q0-13.64-3.41-36.16Q786.46,99,785.52,99l-8.33,20a89.26,89.26,0,0,0-6.9,25.53l-24,5.95Q750.47,135,755.7,119a302.65,302.65,0,0,1,12-29.42q3.48-7.6,9.67-19a6.25,6.25,0,0,0,.4-1.9,21.94,21.94,0,0,0-1.67-6.58Q774,56.3,773.78,55.35Zm197.61-2.14q-2.53,5.94-8.57,25.29t-9.2,28.55q-9,25.36-20.53,35.2-9.75,8.17-25.38,8.17-7.85,0-15.62-5.55Q881,136.78,881,121.08a57.41,57.41,0,0,1,1.9-14q6-23.64,19-51.39l20.78-2.45q-6.9,16.65-9,21.72Q906,94.52,903,107.05a42.49,42.49,0,0,0-1,9.2q0,13.95,10,13.95,11.42,0,20.06-23.15l20-53.84Zm37.42,18a50.66,50.66,0,0,0-9,1q-9.35,2.22-13.32,7.61a6.76,6.76,0,0,0-1.35,4q0,3.49,3.65,8.73a85.18,85.18,0,0,1,5.55,8.56q4.44,10.38,4.44,16.18v1.58q-1.26,14.35-16.49,24.43-8.25,5.55-26.64,10.14l-4.44-23.7a63.33,63.33,0,0,0,12.53-2.78q13.15-4.52,13.16-12.05V114a19,19,0,0,0-2.46-8.57q-1.35-2-4.68-7.29-5.94-9.45-5.95-16.34,0-14.74,11-21.25,8.48-4.92,25.53-9.2Z" transform="translate(-0.02 -4.37)"/></svg>