<svg width="689" height="586" viewBox="0 0 689 586" fill="none" xmlns="http://www.w3.org/2000/svg">
<path d="M237.997 524.324C103.898 531.191 57.5157 500.473 13.9004 401.005" stroke="#E1DED9" stroke-width="15.7322" stroke-linecap="round"/>
<path d="M631.002 200.637C666.822 356.86 535.705 407.611 363.544 447.085C226.269 478.561 72.0809 447.643 46.1906 334.727C22.2883 230.481 106.319 110.83 277.448 71.592C475.976 21.0747 599.527 63.3622 631.002 200.637Z" fill="#ECE9E4"/>
<path d="M267.61 476.904C258.859 467.689 248.896 457.512 246.104 452.285L349.484 446.399L359.665 464.271C363.309 469.737 371.055 480.78 373.417 483.498C375.778 486.216 377.941 487.521 396.247 503.468C413.624 518.604 389.351 519.824 382.526 519.434C377.426 519.142 359.38 516.412 350.833 513.881C340.502 511.469 318.072 507.776 308.384 504.059C289.325 496.745 279.641 489.573 267.61 476.904Z" fill="#ECE9E4"/>
<path d="M404.93 431.509C494.637 413.026 660.281 344.781 625.145 204.143" stroke="#E1DED9" stroke-width="12.7071" stroke-linecap="round"/>
<path d="M208.213 308.957L195.554 313.482C193.374 314.33 191.819 315.093 190.889 315.77C184.263 320.001 179.671 325.194 177.112 331.35C175.61 335.06 175.176 337.801 175.81 339.575C176.401 341.226 177.707 342.276 179.73 342.726C181.556 343.59 185.916 343.342 192.809 341.982C201.056 338.62 205.682 334.484 206.685 329.573C208.37 325.798 208.88 318.926 208.213 308.957ZM206.13 289.528C205.653 286.457 205.141 283.192 204.594 279.732L227.789 269.372C228.432 273.487 228.99 277.46 229.463 281.291L235.884 278.996L235.549 299.186L231.513 300.629C232.631 317.264 231.772 329.33 228.934 336.828C222.888 351.748 211.467 362.245 194.671 368.317L193.662 368.678C185.834 371.476 178.423 372.642 171.429 372.177C161.761 371.563 155.626 367.618 153.025 360.341C150.599 353.552 151.494 345.06 155.711 334.862C157.776 329.641 161.453 323.43 166.741 316.229C163.53 313.998 161.257 311.017 159.924 307.286C157.891 301.599 158.765 294.01 162.545 284.521C167.98 270.784 176.857 259.439 189.174 250.484C193.157 247.543 197.752 244.866 202.959 242.453C203.653 242.274 204.92 241.959 206.759 241.508L209.551 240.924C211.695 240.365 213.954 240.316 216.326 240.778C219.821 240.908 222.956 241.478 225.73 242.486L212.093 264.534C209.445 263.687 205.905 263.332 201.47 263.469C193.123 266.935 187.251 272.793 183.854 281.042C182.348 284.546 181.956 287.307 182.677 289.325C183.726 292.26 186.951 293.66 192.35 293.523C194.054 293.466 195.62 293.216 197.049 292.774L206.13 289.528ZM287.594 330.757C288.292 341.197 288.864 348.683 289.311 353.213L288.518 353.6C281.237 357.927 273.012 363.281 263.844 369.661C263.222 363.676 262.672 357.218 262.194 350.285C260.329 351.434 258.383 352.647 256.356 353.923L241.626 332.394C247.868 329.404 254.793 325.722 262.402 321.347C272.574 311.021 276.621 302.953 274.545 297.144L274.217 296.226C273.168 293.291 265.203 289.241 250.322 284.077C242.155 278.789 237.121 273.485 235.219 268.164C231.153 256.79 233.361 246.759 241.843 238.072C245.04 234.86 249.359 231.316 254.801 227.439C254.158 221.393 253.448 215.164 252.673 208.751C258.439 205.586 266.262 201.617 276.142 196.844C277.082 199.474 278.124 205.861 279.267 216.004L296.689 232.329C291.902 234.178 287.844 236.043 284.515 237.922C271.49 244.509 263.886 250.538 261.703 256.008C261.004 257.913 260.939 259.66 261.508 261.25C262.47 263.941 265.354 266.704 270.16 269.537C289.633 279.06 300.168 286.054 301.764 290.518L302.42 292.352C305.153 303.859 300.845 316.02 289.494 328.836C288.891 329.465 288.258 330.106 287.594 330.757ZM325.88 321.52L357.671 305.397C357.965 311.43 358.818 321.436 360.228 335.416L359.285 335.96C350.178 341.353 339.876 348.035 328.38 356.007C327.175 343.954 326.342 332.459 325.88 321.52ZM348.202 186.294C350.849 199.486 353.186 223.1 355.213 257.136L356.349 288.386L325.076 302.772L322.103 239.177C320.846 227.556 319.761 214.875 318.849 201.131C326.078 197.237 335.862 192.291 348.202 186.294ZM392.828 213.896L401.903 210.342C401.906 202.823 402.248 193.942 402.931 183.697L422.66 175.507L422.222 202.355L432.456 198.282L432.448 216.493L421.938 220.664L421.738 231.391L434.266 226.499L434.225 244.618L421.422 249.608L421.01 277.687L399.874 289.174C399.847 287.942 399.947 284.458 400.172 278.722L401.045 257.719L392.062 261.241L391.656 288.18L370.52 299.667C370.493 298.435 370.593 294.951 370.818 289.215L371.651 269.261L363.127 272.618L363.961 254.112L372.393 250.788C372.471 247.725 372.538 244.15 372.594 240.061L361.35 244.493L362.151 225.896L372.602 221.85C372.538 214.148 372.864 204.928 373.577 194.19L393.306 186L392.828 213.896ZM401.987 228.519L392.545 232.205L392.345 242.932L401.787 239.247C401.864 236.184 401.931 232.608 401.987 228.519ZM476.303 179.713C476.19 179.201 476.078 178.793 475.969 178.487C475.488 177.142 474.719 176.244 473.661 175.795L474.533 174.759C472.855 173.152 470.884 172.753 468.622 173.561C466.298 174.392 464.645 175.845 463.662 177.92C462.697 179.852 462.447 182.045 462.91 184.5C463.046 185.072 463.179 185.542 463.311 185.909C463.944 187.682 465.011 189.025 466.509 189.938C468.091 190.89 469.738 191.06 471.451 190.448C473.53 189.704 474.978 188.256 475.794 186.102C476.554 184.175 476.723 182.045 476.303 179.713ZM508.065 226.603C507.951 226.092 507.84 225.684 507.731 225.378C507.228 223.971 506.448 223.043 505.39 222.593L506.294 221.65C504.616 220.042 502.646 219.643 500.383 220.452C498.059 221.283 496.395 222.705 495.391 224.719C494.426 226.651 494.187 228.874 494.672 231.39C494.808 231.963 494.941 232.432 495.072 232.799C495.706 234.573 496.762 235.885 498.238 236.737C499.759 237.71 501.406 237.88 503.179 237.246C505.259 236.503 506.707 235.055 507.523 232.901C508.221 230.996 508.402 228.897 508.065 226.603ZM468.069 215.14C463.74 215.377 459.723 214.365 456.018 212.103C450.648 208.849 446.651 203.554 444.028 196.215C443.46 194.625 442.92 192.921 442.408 191.104C440.589 182.927 441.598 174.945 445.436 167.159C449.496 159.225 455.44 153.858 463.268 151.06C475.071 146.841 484.851 147.863 492.607 154.125L489.999 157.54C490.611 158.287 491.171 158.984 491.678 159.63C494.677 152.972 498.032 145.669 501.743 137.721L504.672 136.364C509.936 133.724 516.099 130.9 523.162 127.892C521.416 132.655 519.043 138.848 516.044 146.472L496.131 197.557C507.471 193.78 516.883 194.933 524.368 201.016L521.761 204.431C523.955 207.095 525.456 209.559 526.265 211.821C526.833 213.411 527.387 215.731 527.925 218.78C529.631 228.377 528.825 236.735 525.507 243.852C521.979 251.734 515.843 257.238 507.098 260.364C499.943 262.922 493.492 262.434 487.747 258.901C483.273 256.225 479.774 252.13 477.252 246.618L469.243 266.757L443.908 283.572C451.494 259.066 459.548 236.256 468.069 215.14Z" fill="black"/>
</svg>
