<svg xmlns="http://www.w3.org/2000/svg" viewBox="0 0 1877.63 86"><path d="M-262.58,24.34q8.68-9.4,22-22.87l2.28-.23Q-232,.52-223.79,0q-3.45,4.17-9.24,10.74l-26,30L-276.33,61l-17.09,19.48-21.09,5.18q17.92-23.76,35.45-43.25Zm69.57,0q8.69-9.4,22-22.87l2.28-.23Q-162.4.52-154.22,0q-3.45,4.17-9.24,10.74l-26,30L-206.76,61l-17.09,19.48-21.09,5.18Q-227,61.86-209.49,42.37Zm69.57,0q8.68-9.4,22-22.87l2.28-.23Q-92.83.52-84.65,0q-3.45,4.17-9.24,10.74l-26,30L-137.19,61l-17.08,19.48-21.1,5.18q17.93-23.76,35.45-43.25Zm69.57,0q8.68-9.4,22-22.87l2.28-.23Q-23.26.52-15.08,0q-3.45,4.17-9.24,10.74l-26,30L-67.62,61-84.7,80.44l-21.1,5.18q17.92-23.76,35.45-43.25Zm69.57,0q8.68-9.4,22-22.87L40,1.24Q46.31.52,54.49,0,51,4.19,45.25,10.76l-26,30L2,61-15.13,80.44l-21.1,5.18Q-18.31,61.86-.77,42.37Zm69.57,0q8.69-9.4,22-22.87l2.28-.23Q115.88.52,124.06,0q-3.45,4.17-9.24,10.74l-26,30L71.52,61,54.44,80.44l-21.1,5.18Q51.27,61.86,68.8,42.37Zm69.57,0q8.68-9.4,22-22.87l2.28-.23Q185.46.52,193.63,0q-3.45,4.17-9.24,10.74l-26,30L141.09,61,124,80.44l-21.1,5.18q17.93-23.76,35.46-43.25Zm69.57,0q8.68-9.4,22-22.87l2.28-.23Q255,.52,263.2,0,259.75,4.19,254,10.76l-26,30L210.66,61,193.58,80.44l-21.1,5.18q17.93-23.76,35.46-43.25Zm69.57,0q8.68-9.4,22-22.87l2.28-.23Q324.6.52,332.77,0q-3.45,4.17-9.23,10.74l-26.05,30L280.23,61,263.15,80.44l-21.1,5.18Q260,61.86,277.51,42.37Zm69.57,0q8.68-9.4,22-22.87l2.28-.23Q394.17.52,402.34,0q-3.45,4.17-9.23,10.74l-26.05,30L349.81,61,332.72,80.44l-21.1,5.18q17.92-23.76,35.46-43.25Zm69.57,0q8.69-9.4,22-22.87l2.28-.23Q463.74.52,471.92,0q-3.46,4.17-9.24,10.74l-26.05,30L419.38,61,402.29,80.44,381.2,85.62q17.91-23.76,35.45-43.25Zm69.57,0q8.69-9.4,22-22.87L527,1.24Q533.31.52,541.49,0,538,4.19,532.25,10.76l-26.05,30L489,61,471.86,80.44l-21.09,5.18q17.91-23.76,35.45-43.25Zm69.57,0q8.68-9.4,22-22.87l2.29-.23Q602.88.52,611.06,0q-3.45,4.17-9.24,10.74l-26.05,30L558.52,61,541.43,80.44l-21.09,5.18q17.91-23.76,35.45-43.25Zm69.57,0q8.68-9.4,22-22.87l2.29-.23Q672.45.52,680.63,0q-3.45,4.17-9.24,10.74l-26,30L628.09,61,611,80.44l-21.09,5.18q17.91-23.76,35.45-43.25Zm69.57,0q8.69-9.4,22-22.87l2.29-.23Q742,.52,750.2,0,746.75,4.19,741,10.76l-26.05,30L697.66,61,680.57,80.44l-21.09,5.18q17.92-23.76,35.45-43.25Zm69.58,0q8.67-9.4,22-22.87l2.28-.23Q811.59.52,819.77,0q-3.45,4.17-9.24,10.74l-26,30L767.23,61,750.14,80.44l-21.09,5.18Q747,61.86,764.5,42.37Zm69.57,0q8.67-9.4,22-22.87l2.28-.23Q881.16.52,889.34,0q-3.45,4.17-9.24,10.74l-26.05,30L836.8,61,819.71,80.44l-21.09,5.18q17.93-23.76,35.45-43.25Zm69.57,0q8.67-9.4,22-22.87l2.28-.23Q950.74.52,958.91,0q-3.45,4.17-9.24,10.74l-26,30L906.37,61,889.28,80.44l-21.09,5.18q17.92-23.76,35.45-43.25Zm69.57,0q8.68-9.4,22-22.87l2.28-.23q6.3-.72,14.47-1.22-3.45,4.17-9.24,10.74l-26,30L975.94,61,958.86,80.44l-21.1,5.18q17.93-23.76,35.46-43.25Zm69.57,0q8.68-9.4,22-22.87l2.28-.23q6.3-.72,14.47-1.22-3.45,4.17-9.23,10.74l-26,30L1045.51,61l-17.08,19.48-21.1,5.18q17.92-23.76,35.46-43.25Zm69.57,0q8.68-9.4,22-22.87l2.28-.23q6.3-.72,14.47-1.22-3.45,4.17-9.23,10.74l-26.05,30L1115.09,61,1098,80.44l-21.1,5.18q17.92-23.76,35.46-43.25Zm69.57,0q8.68-9.4,22-22.87l2.28-.23Q1229,.52,1237.2,0q-3.45,4.17-9.24,10.74l-26,30L1184.66,61l-17.09,19.48-21.09,5.18q17.91-23.76,35.45-43.25Zm69.57,0q8.68-9.4,22-22.87l2.29-.23q6.29-.72,14.47-1.22-3.45,4.17-9.24,10.74l-26,30L1254.23,61l-17.09,19.48-21.09,5.18Q1234,61.86,1251.5,42.37Zm69.57,0q8.68-9.4,22-22.87l2.29-.23q6.29-.72,14.47-1.22-3.45,4.17-9.24,10.74l-26,30L1323.8,61l-17.09,19.48-21.09,5.18q17.91-23.76,35.45-43.25Zm69.57,0q8.69-9.4,22-22.87l2.29-.23q6.29-.72,14.47-1.22-3.45,4.17-9.24,10.74l-26.05,30L1393.37,61l-17.09,19.48-21.09,5.18q17.91-23.76,35.45-43.25Zm69.58,0q8.67-9.4,22-22.87l2.28-.23Q1507.3.52,1515.48,0q-3.45,4.17-9.24,10.74l-26,30L1462.94,61l-17.09,19.48-21.09,5.18q17.92-23.76,35.45-43.25Zm69.57,0q8.67-9.4,22-22.87l2.28-.23q6.29-.72,14.47-1.22-3.45,4.17-9.24,10.74l-26,30L1532.51,61l-17.09,19.48-21.09,5.18q17.93-23.76,35.45-43.25Zm69.57,0q8.67-9.4,22-22.87l2.28-.23q6.28-.72,14.47-1.22-3.45,4.17-9.24,10.74l-26.05,30L1602.08,61,1585,80.44l-21.09,5.18q17.92-23.76,35.45-43.25Zm69.57,0q8.67-9.4,22-22.87l2.28-.23Q1716,.52,1724.19,0q-3.45,4.17-9.24,10.74l-26,30L1671.65,61l-17.09,19.48-21.09,5.18q17.92-23.76,35.45-43.25Zm69.57,0q8.68-9.4,22-22.87l2.28-.23q6.29-.72,14.47-1.22-3.45,4.17-9.24,10.74l-26,30L1741.22,61l-17.09,19.48L1703,85.62q17.93-23.76,35.45-43.25Zm69.57,0q8.68-9.4,22-22.87l2.28-.23q6.29-.72,14.47-1.22-3.45,4.17-9.24,10.74l-26,30L1810.79,61,1793.7,80.44l-21.09,5.18q17.92-23.76,35.45-43.25Zm69.57,0q8.69-9.4,22-22.87l2.28-.23Q1924.71.52,1932.9,0q-3.45,4.17-9.24,10.74l-26.05,30L1880.36,61l-17.09,19.48-21.09,5.18q17.92-23.76,35.45-43.25Zm69.57,0q8.68-9.4,22-22.87l2.28-.23q6.29-.72,14.47-1.22-3.45,4.17-9.24,10.74l-26,30L1949.93,61l-17.09,19.48-21.09,5.18q17.93-23.76,35.45-43.25Zm-2226.26,80q8.68-9.41,22-22.87l2.28-.23q6.28-.72,14.47-1.22-3.45,4.17-9.24,10.74l-26,30L-276.33,141l-17.09,19.48-21.09,5.18q17.92-23.76,35.45-43.25Zm69.57,0q8.69-9.41,22-22.87l2.28-.23q6.28-.72,14.47-1.22-3.45,4.17-9.24,10.74l-26,30L-206.76,141l-17.09,19.48-21.09,5.18q17.92-23.76,35.45-43.25Zm69.57,0q8.68-9.41,22-22.87l2.28-.23q6.28-.72,14.47-1.22-3.45,4.17-9.24,10.74l-26,30L-137.19,141l-17.08,19.48-21.1,5.18q17.93-23.76,35.45-43.25Z"/></svg>