<svg width="734" height="564" viewBox="0 0 734 564" fill="none" xmlns="http://www.w3.org/2000/svg">
<path d="M459.021 108.232C562.787 137.613 608.325 183.725 627.947 274.444" stroke="#E1DED9" stroke-width="15.7322" stroke-linecap="round"/>
<path d="M506.725 21.1356C646.915 53.0482 691.517 114.649 725.167 280.414" stroke="#E1DED9" stroke-width="15.7322" stroke-linecap="round"/>
<path d="M39.2288 249.984C15.1447 389.458 133.198 427.913 286.902 454.455C409.46 475.618 543.935 440.952 561.343 340.141C577.414 247.071 497.572 145.6 344.79 119.218C167.306 84.2052 60.3918 127.426 39.2288 249.984Z" fill="#ECE9E4"/>
<path d="M372.924 476.142C380.198 467.596 388.495 458.144 390.706 453.401L299.265 453.174L291.145 469.423C288.195 474.417 281.894 484.527 279.942 487.037C277.99 489.547 276.146 490.802 260.77 505.742C246.174 519.923 267.636 519.834 273.636 519.161C278.119 518.659 293.9 515.385 301.315 512.743C310.308 510.121 329.909 505.787 338.274 502.044C354.729 494.68 362.924 487.891 372.924 476.142Z" fill="#ECE9E4"/>
<path d="M194.329 303.38C190.065 310.243 187.053 315.196 185.293 318.239L184.621 318.124C178.105 317.559 170.535 317.214 161.911 317.087C164.216 313.053 166.78 308.754 169.602 304.19C167.914 304.071 166.148 303.956 164.302 303.843L164.757 283.705C170.019 284.641 176.022 285.45 182.765 286.132C193.795 284.236 199.967 280.998 201.281 276.419L201.488 275.695C202.152 273.382 198.98 267.254 191.971 257.314C189.23 250.319 188.461 244.725 189.664 240.531C192.236 231.565 198.138 226.267 207.371 224.637C210.822 224.062 215.128 223.785 220.288 223.804C222.606 219.722 224.967 215.495 227.369 211.123C232.41 211.734 239.105 212.768 247.452 214.224C246.858 216.296 244.635 220.772 240.784 227.649L244.36 245.735C240.524 244.739 237.139 244.081 234.205 243.761C223.068 242.027 215.583 242.384 211.751 244.832C210.455 245.713 209.627 246.779 209.268 248.033C208.659 250.154 209.224 253.185 210.963 257.127C218.889 271.87 222.348 281.001 221.338 284.52L220.924 285.966C217.457 294.415 209.277 300.103 196.386 303.03C195.724 303.154 195.039 303.27 194.329 303.38ZM278.48 264.288C278.638 263.916 278.752 263.61 278.821 263.369C279.126 262.308 279.047 261.399 278.587 260.641L279.6 260.383C279.271 258.62 278.215 257.482 276.431 256.97C274.599 256.445 272.908 256.612 271.357 257.471C269.882 258.248 268.737 259.511 267.923 261.259C267.75 261.679 267.622 262.034 267.539 262.323C267.138 263.721 267.202 265.044 267.731 266.291C268.295 267.601 269.251 268.449 270.601 268.836C272.24 269.306 273.801 269.05 275.283 268.066C276.627 267.2 277.692 265.94 278.48 264.288ZM277.286 308.004C277.445 307.633 277.559 307.326 277.628 307.085C277.946 305.977 277.874 305.043 277.414 304.285L278.406 304.1C278.077 302.336 277.021 301.198 275.237 300.687C273.406 300.161 271.721 300.304 270.184 301.115C268.709 301.892 267.557 303.179 266.729 304.976C266.556 305.396 266.428 305.751 266.345 306.04C265.944 307.438 266.015 308.736 266.558 309.936C267.074 311.231 268.03 312.079 269.428 312.48C271.067 312.951 272.628 312.694 274.11 311.711C275.406 310.83 276.464 309.595 277.286 308.004ZM257.36 282.802C254.538 281.001 252.474 278.557 251.168 275.47C249.265 271.011 249.143 265.889 250.803 260.105C251.162 258.851 251.591 257.539 252.088 256.169C254.629 250.22 258.857 245.668 264.771 242.512C270.891 239.364 277.036 238.675 283.206 240.445C292.51 243.114 298.184 248.159 300.229 255.58L297.056 256.548C297.103 257.292 297.14 257.981 297.167 258.615C302.047 255.789 307.441 252.719 313.348 249.405L315.796 249.872C320.287 250.587 325.424 251.591 331.209 252.885C327.969 255.086 323.692 257.903 318.377 261.334L282.88 284.41C291.695 287.148 297.08 292.11 299.035 299.297L295.862 300.264C296.038 302.924 295.871 305.145 295.359 306.929C294.999 308.182 294.302 309.886 293.266 312.041C290.014 318.83 285.745 323.709 280.459 326.679C274.696 330.035 268.368 330.724 261.475 328.746C255.835 327.128 252.009 323.917 249.995 319.114C248.394 315.42 248.044 311.276 248.944 306.683L234.851 315.709L211.387 314.846C227.181 302.891 242.505 292.21 257.36 282.802ZM366.825 360.611C354.576 367.845 341.125 369.36 326.47 365.156C314.612 361.754 306.532 355.002 302.231 344.898C298.28 335.574 298.04 324.862 301.511 312.763C302.258 310.16 303.197 307.429 304.33 304.572C309.579 292.096 318.444 282.561 330.926 275.968C343.739 269.314 356.581 267.833 369.452 271.525C380.78 274.775 388.609 280.856 392.939 289.767C394.836 293.702 396.732 298.916 398.626 305.407C398.944 311.028 398.522 315.863 397.36 319.912C394.567 329.65 389.142 336.467 381.085 340.364C375.771 343.066 368.968 343.227 360.677 340.849L359.665 340.558C357.881 340.047 355.423 339.524 352.289 338.99C348.487 338.421 345.67 337.874 343.838 337.348C333.86 334.486 330.033 329.005 332.356 320.907C332.798 319.365 333.689 317.351 335.028 314.865C337.479 310.142 340.713 306.505 344.732 303.954C349.371 301.059 354.125 300.31 358.993 301.706C361.596 302.818 363.183 303.56 363.754 303.933C367.1 306.093 368.005 309.848 366.47 315.199C365.71 317.85 364.046 321.468 361.478 326.053C367.697 327.837 371.449 326.487 372.735 322.004C373.025 320.992 373.637 319.498 374.569 317.522C375.563 315.511 376.219 313.952 376.537 312.843C377.049 311.06 376.912 309.534 376.128 308.265C374.739 300.197 369.898 294.974 361.607 292.596C353.219 290.19 345.455 290.884 338.315 294.679C331.533 298.315 326.291 304.22 322.59 312.393C321.734 314.286 321.112 315.908 320.725 317.257C318.9 323.62 319.186 329.624 321.584 335.268C324.154 341.223 328.572 345.099 334.839 346.897C338.695 348.003 341.584 348.571 343.506 348.6C346.082 348.713 348.866 347.921 351.858 346.223L366.825 360.611ZM401.392 366.145L428.594 370.349C426.061 374.266 422.09 380.926 416.679 390.33L415.842 390.247C407.701 389.528 398.23 389.081 387.429 388.904C392.101 380.801 396.755 373.215 401.392 366.145ZM476.291 291.375C472.01 300.842 462.842 316.707 448.786 338.969L435.425 359.083L409.33 354.023L436.105 312.793C440.55 304.938 445.581 296.495 451.197 287.463C457.486 288.276 465.85 289.58 476.291 291.375Z" fill="black"/>
</svg>
