<svg xmlns="http://www.w3.org/2000/svg" viewBox="0 0 1949.35 87"><path d="M-210.84,61.74q8.68,9.41,22,22.87l2.28.22q6.3.73,14.48,1.23-3.47-4.17-9.24-10.74l-26.05-30-17.26-20.2L-241.67,5.64-262.77.46q17.92,23.76,35.46,43.24Zm69.57,0q8.69,9.41,22,22.87l2.29.22q6.28.73,14.47,1.23-3.47-4.17-9.24-10.74l-26-30L-155,25.12-172.1,5.64-193.2.46q17.92,23.76,35.46,43.24Zm69.57,0q8.69,9.41,22,22.87l2.29.22q6.28.73,14.47,1.23-3.45-4.17-9.24-10.74l-26-30-17.25-20.2L-102.53,5.64-123.62.46q17.91,23.76,35.45,43.24Zm69.57,0q8.69,9.41,22,22.87l2.29.22q6.29.73,14.47,1.23-3.45-4.17-9.24-10.74l-26-30-17.25-20.2L-33,5.64-54,.46Q-36.14,24.22-18.6,43.7Zm69.57,0q8.69,9.41,22,22.87l2.29.22q6.28.73,14.47,1.23Q102.79,81.89,97,75.32l-26-30L53.7,25.12,36.61,5.64,15.52.46Q33.43,24.22,51,43.7Zm69.57,0q8.69,9.41,22,22.87l2.29.22q6.28.73,14.47,1.23-3.45-4.17-9.24-10.74l-26-30-17.25-20.2L106.18,5.64,85.09.46Q103,24.22,120.54,43.7Zm69.58,0q8.67,9.41,22,22.87l2.29.22q6.28.73,14.47,1.23-3.45-4.17-9.24-10.74l-26-30-17.25-20.2L175.75,5.64,154.66.46q17.91,23.76,35.45,43.24Zm69.57,0q8.67,9.41,22,22.87l2.28.22q6.28.73,14.47,1.23-3.45-4.17-9.24-10.74l-26-30-17.25-20.2L245.32,5.64,224.23.46q17.93,23.76,35.45,43.24Zm69.57,0q8.68,9.41,22,22.87l2.28.22q6.29.73,14.47,1.23-3.45-4.17-9.24-10.74l-26-30L332,25.12,314.89,5.64,293.8.46q17.93,23.76,35.45,43.24Zm69.57,0q8.67,9.41,22,22.87l2.28.22q6.28.73,14.47,1.23-3.45-4.17-9.24-10.74l-26.05-30-17.25-20.2L384.46,5.64,363.37.46q17.92,23.76,35.45,43.24Zm69.57,0q8.69,9.41,22,22.87l2.28.22q6.29.73,14.47,1.23-3.45-4.17-9.24-10.74l-26-30-17.25-20.2L454,5.64,432.94.46q17.93,23.76,35.45,43.24Zm69.57,0q8.68,9.41,22,22.87l2.28.22q6.29.73,14.47,1.23-3.45-4.17-9.24-10.74l-26-30-17.25-20.2L523.6,5.64,502.51.46Q520.44,24.22,538,43.7Zm69.57,0q8.68,9.41,22,22.87l2.28.22q6.28.73,14.47,1.23-3.45-4.17-9.24-10.74l-26-30-17.26-20.2L593.17,5.64,572.08.46Q590,24.22,607.53,43.7Zm69.57,0q8.68,9.41,22,22.87l2.28.22q6.29.73,14.47,1.23-3.45-4.17-9.24-10.74l-26-30-17.26-20.2L662.74,5.64,641.65.46Q659.58,24.22,677.1,43.7Zm69.57,0q8.69,9.41,22,22.87l2.28.22q6.28.73,14.47,1.23-3.45-4.17-9.24-10.74l-26-30L749.4,25.12,732.32,5.64,711.22.46q17.92,23.76,35.45,43.24Zm69.57,0q8.68,9.41,22,22.87l2.28.22q6.29.73,14.47,1.23-3.45-4.17-9.24-10.74l-26-30L819,25.12,801.89,5.64,780.79.46q17.93,23.76,35.46,43.24Zm69.57,0q8.69,9.41,22,22.87l2.28.22q6.28.73,14.47,1.23-3.45-4.17-9.24-10.74l-26-30-17.26-20.2L871.46,5.64,850.36.46q17.92,23.76,35.46,43.24Zm69.57,0q8.68,9.41,22,22.87l2.28.22q6.3.73,14.47,1.23-3.45-4.17-9.24-10.74l-26-30-17.26-20.2L941,5.64,919.93.46q17.93,23.76,35.46,43.24Zm69.57,0q8.68,9.41,22,22.87l2.28.22q6.3.73,14.47,1.23-3.45-4.17-9.24-10.74l-26-30-17.26-20.2L1010.6,5.64,989.5.46Q1007.43,24.22,1025,43.7Zm69.57,0q8.68,9.41,22,22.87l2.28.22q6.3.73,14.47,1.23-3.45-4.17-9.23-10.74l-26-30-17.26-20.2L1080.17,5.64,1059.07.46Q1077,24.22,1094.53,43.7Zm69.57,0q8.68,9.41,22,22.87l2.28.22q6.3.73,14.47,1.23-3.45-4.17-9.23-10.74l-26.05-30-17.25-20.2L1149.74,5.64,1128.64.46q17.92,23.76,35.46,43.24Zm69.57,0q8.68,9.41,22,22.87l2.28.22q6.3.73,14.48,1.23-3.45-4.17-9.24-10.74l-26-30-17.25-20.2L1219.31,5.64,1198.22.46q17.91,23.76,35.45,43.24Zm69.57,0q8.68,9.41,22,22.87l2.29.22q6.29.73,14.47,1.23-3.45-4.17-9.24-10.74l-26-30L1306,25.12,1288.88,5.64,1267.79.46q17.91,23.76,35.45,43.24Zm69.57,0q8.68,9.41,22,22.87l2.29.22q6.29.73,14.47,1.23-3.45-4.17-9.24-10.74l-26-30-17.25-20.2L1358.45,5.64,1337.36.46q17.91,23.76,35.45,43.24Zm69.57,0q8.69,9.41,22,22.87l2.29.22q6.28.73,14.47,1.23-3.45-4.17-9.24-10.74l-26.05-30-17.25-20.2L1428,5.64,1406.93.46q17.91,23.76,35.45,43.24Zm69.58,0q8.67,9.41,22,22.87l2.28.22q6.29.73,14.47,1.23-3.45-4.17-9.24-10.74l-26-30-17.25-20.2L1497.59,5.64,1476.5.46Q1494.43,24.22,1512,43.7Zm69.57,0q8.67,9.41,22,22.87l2.28.22q6.29.73,14.47,1.23-3.45-4.17-9.24-10.74l-26-30-17.25-20.2L1567.16,5.64,1546.07.46Q1564,24.22,1581.52,43.7Zm69.57,0q8.67,9.41,22,22.87l2.28.22q6.28.73,14.47,1.23-3.45-4.17-9.24-10.74l-26-30-17.25-20.2L1636.73,5.64,1615.64.46q17.92,23.76,35.45,43.24Zm69.57,0q8.67,9.41,22,22.87l2.28.22q6.29.73,14.47,1.23-3.45-4.17-9.24-10.74l-26-30-17.25-20.2L1706.3,5.64,1685.21.46q17.93,23.76,35.45,43.24Zm69.57,0q8.68,9.41,22,22.87l2.28.22q6.29.73,14.47,1.23-3.45-4.17-9.24-10.74l-26-30L1793,25.12,1775.87,5.64,1754.78.46q17.92,23.76,35.45,43.24Zm69.57,0q8.68,9.41,22,22.87l2.28.22q6.29.73,14.47,1.23-3.45-4.17-9.24-10.74l-26-30-17.25-20.2L1845.44,5.64,1824.35.46q17.93,23.76,35.45,43.24Zm69.57,0q8.69,9.41,22,22.87l2.28.22q6.28.73,14.47,1.23-3.45-4.17-9.24-10.74l-26.05-30-17.25-20.2L1915,5.64,1893.92.46q17.92,23.76,35.45,43.24Zm69.57,0q8.68,9.41,22,22.87l2.28.22q6.29.73,14.47,1.23-3.45-4.17-9.24-10.74l-26-30-17.25-20.2L1984.58,5.64,1963.49.46q17.92,23.76,35.45,43.24Zm-2226.26-80q8.68,9.41,22,22.87l2.28.22q6.3.74,14.48,1.23-3.47-4.17-9.24-10.74l-26.05-30-17.26-20.2-17.08-19.48-21.1-5.18q17.92,23.76,35.46,43.24Zm69.57,0q8.69,9.41,22,22.87l2.29.22q6.28.74,14.47,1.23-3.47-4.17-9.24-10.74l-26-30L-155-54.88-172.1-74.36l-21.1-5.18q17.92,23.76,35.46,43.24Zm69.57,0q8.69,9.41,22,22.87l2.29.22q6.28.74,14.47,1.23-3.45-4.17-9.24-10.74l-26-30-17.25-20.2-17.09-19.48-21.09-5.18q17.91,23.76,35.45,43.24Z"/></svg>