<svg width="1920" height="190" viewBox="0 0 1920 190" fill="none" xmlns="http://www.w3.org/2000/svg">
<path d="M21.776 132.608H2.50129V128.088H-9.20119V132.608H-29.8526L2.50129 109.254H21.776V113.021H29.3481L36.232 109.254H54.8182L21.776 132.608Z" fill="white"/>
<path d="M3.18853 174.418H-18.8397V157.091H-26.4118V174.418H-52.5703V152.948L-40.8678 137.504H-18.8397V140.894H-7.82556L-3.69528 137.504H17.6445L3.87691 155.961L3.18853 174.418Z" fill="white"/>
<path d="M235.178 132.607H215.903V128.087H204.2V132.607H183.549L215.903 109.253H235.178V113.02H242.75L249.634 109.253H268.22L235.178 132.607Z" fill="white"/>
<path d="M216.59 174.418H194.562V157.091H186.99V174.418H160.831V152.948L172.534 137.504H194.562V140.894H205.576L209.706 137.504H231.046L217.279 155.961L216.59 174.418Z" fill="white"/>
<path d="M91.9935 132.607H72.7188V128.087H61.0163V132.607H40.3649L72.7188 109.254H91.9935V113.02H99.5657L106.449 109.254H125.036L91.9935 132.607Z" fill="white"/>
<path d="M73.4061 174.419H51.3779V157.092H43.8057V174.419H17.6472V152.948L29.3497 137.505H51.3779V140.895H62.392L66.5223 137.505H87.8621L74.0944 155.962L73.4061 174.419Z" fill="white"/>
<path d="M160.828 132.607H141.554V128.087H129.851V132.607H109.2L141.554 109.254H160.828V113.02H168.401L175.284 109.254H193.871L160.828 132.607Z" fill="white"/>
<path d="M142.241 174.419H120.213V157.092H112.641V174.419H86.482V152.948L98.1845 137.505H120.213V140.895H131.227L135.357 137.505H156.697L142.929 155.962L142.241 174.419Z" fill="white"/>
<path d="M729.433 131.854H712.224V128.087H703.275L698.456 131.854H682.623V128.087L712.224 108.5H729.433V131.854Z" fill="white"/>
<path d="M729.433 57.6501H712.223V61.4169H703.274L698.456 57.6501L682.623 57.6501V61.4169L712.223 81.004H729.433V57.6501Z" fill="white"/>
<path d="M712.913 174.795H690.885V157.468H683.312V174.795H657.154V153.325L668.856 137.881H690.885V141.271H701.899L706.029 137.881H727.369L713.601 156.338L712.913 174.795Z" fill="white"/>
<path d="M661.972 132.607H642.697V128.087H630.995V132.607H610.343L642.697 109.254H661.972V113.02H669.544L676.428 109.254H695.014L661.972 132.607Z" fill="white"/>
<path d="M643.385 174.419H621.356V157.092H613.784V174.419H587.626V152.948L599.328 137.505H621.356V140.895H632.37L636.501 137.505H657.841L644.073 155.962L643.385 174.419Z" fill="white"/>
<path d="M518.788 132.607H499.513V128.087H487.811V132.607H467.159L499.513 109.254H518.788V113.02H526.36L533.244 109.254H551.83L518.788 132.607Z" fill="white"/>
<path d="M500.2 174.419H478.172V157.092H470.6V174.419H444.442V152.948L456.144 137.505H478.172V140.895H489.186L493.317 137.505H514.656L500.889 155.962L500.2 174.419Z" fill="white"/>
<path d="M587.626 132.607H568.352V128.087H556.649V132.607H535.998L568.352 109.254H587.626V113.02H595.198L602.082 109.254H620.668L587.626 132.607Z" fill="white"/>
<path d="M569.039 174.419H547.011V157.092H539.438V174.419H513.28V152.948L524.982 137.505H547.011V140.895H558.025L562.155 137.505H583.495L569.727 155.962L569.039 174.419Z" fill="white"/>
<path d="M449.951 132.607H430.676V128.087H418.974V132.607H398.322L430.676 109.253H449.951V113.02H457.523L464.407 109.253H482.993L449.951 132.607Z" fill="white"/>
<path d="M431.364 174.418H409.335V157.091H401.763V174.418H375.605V152.948L387.307 137.504H409.335V140.894H420.349L424.48 137.504H445.82L432.052 155.961L431.364 174.418Z" fill="white"/>
<path d="M306.767 132.608H287.492V128.088H275.79V132.608H255.138L287.492 109.254H306.767V113.021H314.339L321.223 109.254H339.809L306.767 132.608Z" fill="white"/>
<path d="M288.179 174.418H266.151V157.091H258.579V174.418H232.421V152.948L244.123 137.504H266.151V140.894H277.165L281.296 137.504H302.635L288.868 155.961L288.179 174.418Z" fill="white"/>
<path d="M375.607 132.607H356.332V128.087H344.63V132.607H323.979L356.332 109.254H375.607V113.02H383.179L390.063 109.254H408.649L375.607 132.607Z" fill="white"/>
<path d="M357.02 174.419H334.992V157.092H327.419V174.419H301.261V152.948L312.963 137.505H334.992V140.895H346.006L350.136 137.505H371.476L357.708 155.962L357.02 174.419Z" fill="white"/>
<path d="M18.3342 57.6494H-0.940487V62.1695H-12.643V57.6494H-33.2944L-0.940487 81.0033H18.3342V77.2365H25.9064L32.7902 81.0033H51.3765L18.3342 57.6494Z" fill="white"/>
<path d="M-0.25324 15.8389L-22.2814 15.8389V33.1659H-29.8536V15.8389L-56.0121 15.8389V37.3093L-44.3096 52.753H-22.2814V49.3629H-11.2673L-7.13705 52.753L14.2028 52.753L0.435141 34.2959L-0.25324 15.8389Z" fill="white"/>
<path d="M231.736 57.6494H212.461V62.1695H200.759V57.6494H180.107L212.461 81.0033H231.736V77.2365H239.308L246.192 81.0033H264.778L231.736 57.6494Z" fill="white"/>
<path d="M213.148 15.8389L191.12 15.8389V33.1659H183.548V15.8389L157.389 15.8389V37.3093L169.092 52.753H191.12V49.3629H202.134L206.264 52.753L227.604 52.753L213.837 34.2959L213.148 15.8389Z" fill="white"/>
<path d="M88.5516 57.6494H69.2769V62.1695H57.5744V57.6494H36.923L69.2769 81.0033H88.5516V77.2365H96.1238L103.008 81.0033H121.594L88.5516 57.6494Z" fill="white"/>
<path d="M69.9642 15.8389L47.936 15.8389V33.1659H40.3638V15.8389L14.2053 15.8389V37.3093L25.9078 52.753H47.936V49.3629H58.9501L63.0804 52.753L84.4202 52.753L70.6525 34.2959L69.9642 15.8389Z" fill="white"/>
<path d="M157.387 57.6501H138.112V62.1702H126.409V57.6501H105.758L138.112 81.004H157.387V77.2372H164.959L171.843 81.004H190.429L157.387 57.6501Z" fill="white"/>
<path d="M138.799 15.8389L116.771 15.8389V33.1659H109.199V15.8389L83.0403 15.8389V37.3093L94.7428 52.753H116.771V49.3629H127.785L131.915 52.753L153.255 52.753L139.488 34.2959L138.799 15.8389Z" fill="white"/>
<path d="M713.6 15.4622L691.571 15.4622V32.7892H683.999V15.4622L657.841 15.4622V36.9326L669.543 52.3763H691.571V48.9862L702.586 48.9862L706.716 52.3763H728.056L714.288 33.9192L713.6 15.4622Z" fill="white"/>
<path d="M661.972 56.897H642.697V61.4171H630.994V56.897H610.343L642.697 80.2508H661.972V76.4841H669.544L676.428 80.2508H695.014L661.972 56.897Z" fill="white"/>
<path d="M643.387 15.0857L621.359 15.0857V32.4127H613.786V15.0857L587.628 15.0857V36.5562L599.33 51.9998H621.359V48.6098H632.373L636.503 51.9998L657.843 51.9998L644.075 33.5428L643.387 15.0857Z" fill="white"/>
<path d="M517.41 57.6494H498.136V62.1695H486.433V57.6494H465.782L498.136 81.0033H517.41V77.2365H524.982L531.866 81.0033H550.452L517.41 57.6494Z" fill="white"/>
<path d="M498.823 15.8389L476.795 15.8389V33.1659H469.222V15.8389L443.064 15.8389V37.3093L454.766 52.753H476.795V49.3629H487.809L491.939 52.753L513.279 52.753L499.511 34.2959L498.823 15.8389Z" fill="white"/>
<path d="M589.003 57.6501H569.728V62.1702H558.026V57.6501H537.374L569.728 81.004H589.003V77.2372H596.575L603.459 81.004H622.045L589.003 57.6501Z" fill="white"/>
<path d="M570.418 15.8389L548.39 15.8389V33.1659H540.818V15.8389L514.659 15.8389V37.3093L526.362 52.753H548.39V49.3629H559.404L563.534 52.753L584.874 52.753L571.107 34.2959L570.418 15.8389Z" fill="white"/>
<path d="M446.509 57.6494H427.235V62.1695H415.532V57.6494H394.881L427.235 81.0033H446.509V77.2365H454.081L460.965 81.0033H479.551L446.509 57.6494Z" fill="white"/>
<path d="M427.922 15.8389L405.894 15.8389V33.1659H398.321V15.8389L372.163 15.8389V37.3093L383.865 52.753H405.894V49.3629H416.908L421.038 52.753L442.378 52.753L428.61 34.2959L427.922 15.8389Z" fill="white"/>
<path d="M303.325 57.6494H284.05V62.1695H272.348V57.6494H251.697L284.05 81.0033H303.325V77.2365H310.897L317.781 81.0033H336.367L303.325 57.6494Z" fill="white"/>
<path d="M284.738 15.8389L262.709 15.8389V33.1659H255.137V15.8389L228.979 15.8389V37.3093L240.681 52.753H262.709V49.3629H273.724L277.854 52.753L299.194 52.753L285.426 34.2959L284.738 15.8389Z" fill="white"/>
<path d="M372.162 57.6501H352.887V62.1702H341.185V57.6501H320.533L352.887 81.004H372.162V77.2372H379.734L386.618 81.004H405.204L372.162 57.6501Z" fill="white"/>
<path d="M353.574 15.8389L331.546 15.8389V33.1659H323.974V15.8389L297.816 15.8389V37.3093L309.518 52.753H331.546V49.3629H342.56L346.691 52.753L368.03 52.753L354.263 34.2959L353.574 15.8389Z" fill="white"/>
<rect width="10.5469" height="24.7817" transform="matrix(0 -1 -1 0 714.288 189.486)" fill="white"/>
<rect width="10.5469" height="24.7817" transform="matrix(0 -1 -1 0 507.773 189.486)" fill="white"/>
<rect width="10.5469" height="24.7817" transform="matrix(0 -1 -1 0 542.193 189.486)" fill="white"/>
<rect width="10.5469" height="24.7817" transform="matrix(0 -1 -1 0 576.612 189.486)" fill="white"/>
<rect width="10.5469" height="24.7817" transform="matrix(0 -1 -1 0 611.032 189.486)" fill="white"/>
<rect width="10.5469" height="24.7817" transform="matrix(0 -1 -1 0 645.451 189.486)" fill="white"/>
<rect width="10.5469" height="24.7817" transform="matrix(0 -1 -1 0 679.868 189.486)" fill="white"/>
<rect width="10.5469" height="24.7817" transform="matrix(0 -1 -1 0 232.422 189.486)" fill="white"/>
<rect width="10.5469" height="24.7817" transform="matrix(0 -1 -1 0 25.9078 189.486)" fill="white"/>
<rect width="10.5469" height="24.7817" transform="matrix(0 -1 -1 0 60.3274 189.486)" fill="white"/>
<rect width="10.5469" height="24.7817" transform="matrix(0 -1 -1 0 94.7468 189.486)" fill="white"/>
<rect width="10.5469" height="24.7817" transform="matrix(0 -1 -1 0 129.164 189.486)" fill="white"/>
<rect width="10.5469" height="24.7817" transform="matrix(0 -1 -1 0 163.583 189.486)" fill="white"/>
<rect width="10.5469" height="24.7817" transform="matrix(0 -1 -1 0 198.003 189.486)" fill="white"/>
<rect width="10.5469" height="24.7817" transform="matrix(0 -1 -1 0 473.356 189.486)" fill="white"/>
<rect width="10.5469" height="24.7817" transform="matrix(0 -1 -1 0 266.842 189.486)" fill="white"/>
<rect width="10.5469" height="24.7817" transform="matrix(0 -1 -1 0 301.259 189.486)" fill="white"/>
<rect width="10.5469" height="24.7817" transform="matrix(0 -1 -1 0 335.678 189.486)" fill="white"/>
<rect width="10.5469" height="24.7817" transform="matrix(0 -1 -1 0 370.098 189.486)" fill="white"/>
<rect width="10.5469" height="24.7817" transform="matrix(0 -1 -1 0 404.517 189.486)" fill="white"/>
<rect width="10.5469" height="24.7817" transform="matrix(0 -1 -1 0 438.937 189.486)" fill="white"/>
<rect width="10.5469" height="24.7817" transform="matrix(0 -1 -1 0 721.173 10.9417)" fill="white"/>
<rect width="10.5469" height="24.7817" transform="matrix(0 -1 -1 0 514.658 10.9417)" fill="white"/>
<rect width="10.5469" height="24.7817" transform="matrix(0 -1 -1 0 549.078 10.9417)" fill="white"/>
<rect width="10.5469" height="24.7817" transform="matrix(0 -1 -1 0 583.495 10.9417)" fill="white"/>
<rect width="10.5469" height="24.7817" transform="matrix(0 -1 -1 0 617.914 10.9424)" fill="white"/>
<rect width="10.5469" height="24.7817" transform="matrix(0 -1 -1 0 652.334 10.9417)" fill="white"/>
<rect width="10.5469" height="24.7817" transform="matrix(0 -1 -1 0 686.753 10.9424)" fill="white"/>
<rect width="10.5469" height="24.7817" transform="matrix(0 -1 -1 0 239.305 10.9417)" fill="white"/>
<rect width="10.5469" height="24.7817" transform="matrix(0 -1 -1 0 32.7903 10.9417)" fill="white"/>
<rect width="10.5469" height="24.7817" transform="matrix(0 -1 -1 0 67.2098 10.9417)" fill="white"/>
<rect width="10.5469" height="24.7817" transform="matrix(0 -1 -1 0 101.629 10.9417)" fill="white"/>
<rect width="10.5469" height="24.7817" transform="matrix(0 -1 -1 0 136.049 10.9417)" fill="white"/>
<rect width="10.5469" height="24.7817" transform="matrix(0 -1 -1 0 170.469 10.9417)" fill="white"/>
<rect width="10.5469" height="24.7817" transform="matrix(0 -1 -1 0 204.885 10.9417)" fill="white"/>
<rect width="10.5469" height="24.7817" transform="matrix(0 -1 -1 0 480.239 10.9417)" fill="white"/>
<rect width="10.5469" height="24.7817" transform="matrix(0 -1 -1 0 273.724 10.9417)" fill="white"/>
<rect width="10.5469" height="24.7817" transform="matrix(0 -1 -1 0 308.144 10.9417)" fill="white"/>
<rect width="10.5469" height="24.7817" transform="matrix(0 -1 -1 0 342.563 10.9417)" fill="white"/>
<rect width="10.5469" height="24.7817" transform="matrix(0 -1 -1 0 376.98 10.9424)" fill="white"/>
<rect width="10.5469" height="24.7817" transform="matrix(0 -1 -1 0 411.4 10.9417)" fill="white"/>
<rect width="10.5469" height="24.7817" transform="matrix(0 -1 -1 0 445.819 10.9424)" fill="white"/>
<rect width="18.9091" height="857.597" transform="matrix(0 -1 -1 0 727.821 103.897)" fill="white"/>
<path d="M871.99 132.451H852.715V127.931H841.013V132.451H820.361L852.715 109.098H871.99V112.864H879.562L886.446 109.098H905.032L871.99 132.451Z" fill="white"/>
<path d="M853.402 174.262H831.374V156.935H823.802V174.262H797.643V152.791L809.346 137.348H831.374V140.738H842.388L846.518 137.348H867.858L854.091 155.805L853.402 174.262Z" fill="white"/>
<path d="M728.806 132.451H709.531V127.931H697.828V132.451H677.177L709.531 109.097H728.806V112.864H736.378L743.262 109.097H761.848L728.806 132.451Z" fill="white"/>
<path d="M710.218 174.262H688.19V156.935H680.618V174.262H654.459V152.791L666.162 137.348H688.19V140.738H699.204L703.334 137.348H724.674L710.907 155.805L710.218 174.262Z" fill="white"/>
<path d="M797.644 132.451H778.369V127.931H766.667V132.451H746.015L778.369 109.097H797.644V112.864H805.216L812.1 109.097H830.686L797.644 132.451Z" fill="white"/>
<path d="M779.056 174.262H757.028V156.935H749.456V174.262H723.298V152.791L735 137.348H757.028V140.738H768.042L772.173 137.348H793.512L779.745 155.805L779.056 174.262Z" fill="white"/>
<path d="M1085.39 132.451H1066.11V127.931H1054.41V132.451H1033.76L1066.11 109.097H1085.39V112.864H1092.96L1099.85 109.097H1118.43L1085.39 132.451Z" fill="white"/>
<path d="M1066.8 174.262H1044.77V156.935H1037.2V174.262H1011.04V152.791L1022.75 137.348H1044.77V140.738H1055.79L1059.92 137.348H1081.26L1067.49 155.805L1066.8 174.262Z" fill="white"/>
<path d="M942.205 132.45H922.93V127.93H911.228V132.45H890.576L922.93 109.097H942.205V112.863H949.777L956.661 109.097H975.247L942.205 132.45Z" fill="white"/>
<path d="M923.617 174.261H901.589V156.934H894.017V174.261H867.858V152.791L879.561 137.347H901.589V140.737H912.603L916.733 137.347H938.073L924.306 155.804L923.617 174.261Z" fill="white"/>
<path d="M1011.05 132.451H991.771V127.931H980.068V132.451H959.417L991.771 109.097H1011.05V112.864H1018.62L1025.5 109.097H1044.09L1011.05 132.451Z" fill="white"/>
<path d="M992.458 174.262H970.43V156.935H962.858V174.262H936.699V152.791L948.402 137.348H970.43V140.738H981.444L985.574 137.348H1006.91L993.146 155.805L992.458 174.262Z" fill="white"/>
<path d="M1512.18 132.451H1492.91V127.931H1481.21V132.451H1460.56L1492.91 109.097H1512.18V112.864H1519.76L1526.64 109.097H1545.23L1512.18 132.451Z" fill="white"/>
<path d="M1493.6 174.262H1471.57V156.935H1464V174.262H1437.84V152.791L1449.54 137.348H1471.57V140.738H1482.58L1486.71 137.348H1508.05L1494.28 155.805L1493.6 174.262Z" fill="white"/>
<path d="M1369 132.451H1349.72V127.931H1338.02V132.451H1317.37L1349.72 109.097H1369V112.864H1376.57L1383.46 109.097H1402.04L1369 132.451Z" fill="white"/>
<path d="M1350.41 174.262H1328.38V156.935H1320.81V174.262H1294.65V152.791L1306.36 137.348H1328.38V140.738H1339.4L1343.53 137.348H1364.87L1351.1 155.805L1350.41 174.262Z" fill="white"/>
<path d="M1437.84 132.451H1418.57V127.931H1406.86V132.451H1386.21L1418.57 109.097H1437.84V112.864H1445.41L1452.3 109.097H1470.88L1437.84 132.451Z" fill="white"/>
<path d="M1419.25 174.262H1397.22V156.935H1389.65V174.262H1363.49V152.791L1375.2 137.348H1397.22V140.738H1408.24L1412.37 137.348H1433.71L1419.94 155.805L1419.25 174.262Z" fill="white"/>
<path d="M1300.16 132.451H1280.89V127.931H1269.19V132.451H1248.53L1280.89 109.097H1300.16V112.864H1307.73L1314.62 109.097H1333.21L1300.16 132.451Z" fill="white"/>
<path d="M1281.58 174.262H1259.55V156.935H1251.97V174.262H1225.82V152.791L1237.52 137.348H1259.55V140.738H1270.56L1274.69 137.348H1296.03L1282.26 155.805L1281.58 174.262Z" fill="white"/>
<path d="M1156.98 132.451H1137.71V127.931H1126V132.451H1105.35L1137.71 109.097H1156.98V112.864H1164.55L1171.44 109.097H1190.02L1156.98 132.451Z" fill="white"/>
<path d="M1138.39 174.261H1116.37V156.934H1108.79V174.261H1082.63V152.791L1094.34 137.347H1116.37V140.737H1127.38L1131.51 137.347H1152.85L1139.08 155.804L1138.39 174.261Z" fill="white"/>
<path d="M1225.82 132.451H1206.54V127.931H1194.84V132.451H1174.19L1206.54 109.097H1225.82V112.864H1233.39L1240.27 109.097H1258.86L1225.82 132.451Z" fill="white"/>
<path d="M1207.23 174.262H1185.2V156.935H1177.63V174.262H1151.47V152.791L1163.18 137.348H1185.2V140.738H1196.22L1200.35 137.348H1221.69L1207.92 155.805L1207.23 174.262Z" fill="white"/>
<path d="M868.548 57.4922H849.274V62.0123H837.571V57.4922H816.92L849.274 80.846H868.548V77.0793H876.12L883.004 80.846H901.591L868.548 57.4922Z" fill="white"/>
<path d="M849.961 15.6816L827.933 15.6816V33.0087H820.36V15.6816L794.202 15.6816V37.1521L805.904 52.5958H827.933V49.2057H838.947L843.077 52.5958L864.417 52.5958L850.649 34.1387L849.961 15.6816Z" fill="white"/>
<path d="M725.364 57.4929H706.09V62.013H694.387V57.4929H673.736L706.09 80.8468H725.364V77.08H732.936L739.82 80.8468H758.406L725.364 57.4929Z" fill="white"/>
<path d="M706.777 15.6816L684.749 15.6816V33.0087H677.176V15.6816L651.018 15.6816V37.1521L662.72 52.5958H684.749V49.2057H695.763L699.893 52.5958L721.233 52.5958L707.465 34.1387L706.777 15.6816Z" fill="white"/>
<path d="M794.202 57.4922H774.928V62.0123H763.225V57.4922H742.574L774.928 80.846H794.202V77.0793H801.775L808.658 80.846H827.245L794.202 57.4922Z" fill="white"/>
<path d="M775.615 15.6816L753.587 15.6816V33.0087H746.015V15.6816L719.856 15.6816V37.1521L731.559 52.5958H753.587V49.2057H764.601L768.731 52.5958L790.071 52.5958L776.303 34.1387L775.615 15.6816Z" fill="white"/>
<path d="M1081.94 57.4929H1062.67V62.013H1050.97V57.4929H1030.32L1062.67 80.8468H1081.94V77.08H1089.52L1096.4 80.8468H1114.99L1081.94 57.4929Z" fill="white"/>
<path d="M1063.36 15.6816L1041.33 15.6816V33.0087H1033.76V15.6816L1007.6 15.6816V37.1521L1019.3 52.5958H1041.33V49.2057H1052.34L1056.47 52.5958L1077.81 52.5958L1064.05 34.1387L1063.36 15.6816Z" fill="white"/>
<path d="M938.763 57.4929H919.489V62.013H907.786V57.4929H887.135L919.489 80.8468H938.763V77.08H946.335L953.219 80.8468H971.806L938.763 57.4929Z" fill="white"/>
<path d="M920.176 15.6816L898.148 15.6816V33.0087H890.575V15.6816L864.417 15.6816V37.1521L876.119 52.5958H898.148V49.2057H909.162L913.292 52.5958L934.632 52.5958L920.864 34.1387L920.176 15.6816Z" fill="white"/>
<path d="M1007.6 57.4929H988.326V62.013H976.624V57.4929H955.973L988.326 80.8468H1007.6V77.08H1015.17L1022.06 80.8468H1040.64L1007.6 57.4929Z" fill="white"/>
<path d="M989.014 15.6816L966.986 15.6816V33.0087H959.413V15.6816L933.255 15.6816V37.1521L944.957 52.5958H966.986V49.2057H978L982.13 52.5958L1003.47 52.5958L989.702 34.1387L989.014 15.6816Z" fill="white"/>
<path d="M1512.18 56.7397H1492.91V61.2598H1481.21V56.7397H1460.56L1492.91 80.0936H1512.18V76.3268H1519.76L1526.64 80.0936H1545.23L1512.18 56.7397Z" fill="white"/>
<path d="M1493.6 14.9285L1471.57 14.9285V32.2555H1464V14.9285L1437.84 14.9285V36.3989L1449.54 51.8426H1471.57V48.4525H1482.58L1486.72 51.8426L1508.05 51.8426L1494.29 33.3855L1493.6 14.9285Z" fill="white"/>
<path d="M1367.63 57.4937H1348.35V62.0138H1336.65V57.4937H1316L1348.35 80.8475H1367.63V77.0807H1375.2L1382.08 80.8475H1400.67L1367.63 57.4937Z" fill="white"/>
<path d="M1349.04 15.6826L1327.01 15.6826V33.0097H1319.44V15.6826L1293.28 15.6826V37.1531L1304.98 52.5968H1327.01V49.2067H1338.02L1342.15 52.5968L1363.49 52.5968L1349.73 34.1397L1349.04 15.6826Z" fill="white"/>
<path d="M1439.22 57.4929H1419.94V62.013H1408.24V57.4929H1387.59L1419.94 80.8468H1439.22V77.08H1446.79L1453.67 80.8468H1472.26L1439.22 57.4929Z" fill="white"/>
<path d="M1420.63 15.6816L1398.6 15.6816V33.0087H1391.03V15.6816L1364.87 15.6816V37.1521L1376.57 52.5958H1398.6V49.2057H1409.62L1413.75 52.5958L1435.09 52.5958L1421.32 34.1387L1420.63 15.6816Z" fill="white"/>
<path d="M1296.72 57.4922H1277.45V62.0123H1265.74V57.4922H1245.09L1277.45 80.846H1296.72V77.0793H1304.29L1311.18 80.846H1329.76L1296.72 57.4922Z" fill="white"/>
<path d="M1278.13 15.6816L1256.11 15.6816V33.0087H1248.53V15.6816L1222.38 15.6816V37.1521L1234.08 52.5958H1256.11V49.2057H1267.12L1271.25 52.5958L1292.59 52.5958L1278.82 34.1387L1278.13 15.6816Z" fill="white"/>
<path d="M1153.54 57.4922H1134.26V62.0123H1122.56V57.4922H1101.91L1134.26 80.846H1153.54V77.0793H1161.11L1168 80.846H1186.58L1153.54 57.4922Z" fill="white"/>
<path d="M1134.95 15.6816L1112.92 15.6816V33.0087H1105.35V15.6816L1079.19 15.6816V37.1521L1090.9 52.5958H1112.92V49.2057H1123.94L1128.07 52.5958L1149.41 52.5958L1135.64 34.1387L1134.95 15.6816Z" fill="white"/>
<path d="M1222.38 57.4929H1203.1V62.013H1191.4V57.4929H1170.75L1203.1 80.8468H1222.38V77.08H1229.95L1236.83 80.8468H1255.42L1222.38 57.4929Z" fill="white"/>
<path d="M1203.79 15.6816L1181.76 15.6816V33.0087H1174.19V15.6816L1148.03 15.6816V37.1521L1159.73 52.5958H1181.76V49.2057H1192.78L1196.91 52.5958L1218.25 52.5958L1204.48 34.1387L1203.79 15.6816Z" fill="white"/>
<rect width="10.5469" height="24.7817" transform="matrix(0 -1 -1 0 1357.99 189.329)" fill="white"/>
<rect width="10.5469" height="24.7817" transform="matrix(0 -1 -1 0 1392.41 189.329)" fill="white"/>
<rect width="10.5469" height="24.7817" transform="matrix(0 -1 -1 0 1426.82 189.329)" fill="white"/>
<rect width="10.5469" height="24.7817" transform="matrix(0 -1 -1 0 1461.24 189.329)" fill="white"/>
<rect width="10.5469" height="24.7817" transform="matrix(0 -1 -1 0 1495.66 189.329)" fill="white"/>
<rect width="10.5469" height="24.7817" transform="matrix(0 -1 -1 0 841.701 189.329)" fill="white"/>
<rect width="10.5469" height="24.7817" transform="matrix(0 -1 -1 0 669.606 189.329)" fill="white"/>
<rect width="10.5469" height="24.7817" transform="matrix(0 -1 -1 0 704.025 189.329)" fill="white"/>
<rect width="10.5469" height="24.7817" transform="matrix(0 -1 -1 0 738.445 189.329)" fill="white"/>
<rect width="10.5469" height="24.7817" transform="matrix(0 -1 -1 0 772.865 189.329)" fill="white"/>
<rect width="10.5469" height="24.7817" transform="matrix(0 -1 -1 0 807.281 189.329)" fill="white"/>
<rect width="10.5469" height="24.7817" transform="matrix(0 -1 -1 0 1082.63 189.329)" fill="white"/>
<rect width="10.5469" height="24.7817" transform="matrix(0 -1 -1 0 876.12 189.329)" fill="white"/>
<rect width="10.5469" height="24.7817" transform="matrix(0 -1 -1 0 910.54 189.329)" fill="white"/>
<rect width="10.5469" height="24.7817" transform="matrix(0 -1 -1 0 944.959 189.329)" fill="white"/>
<rect width="10.5469" height="24.7817" transform="matrix(0 -1 -1 0 979.379 189.329)" fill="white"/>
<rect width="10.5469" height="24.7817" transform="matrix(0 -1 -1 0 1013.8 189.329)" fill="white"/>
<rect width="10.5469" height="24.7817" transform="matrix(0 -1 -1 0 1048.22 189.329)" fill="white"/>
<rect width="10.5469" height="24.7817" transform="matrix(0 -1 -1 0 1323.57 189.329)" fill="white"/>
<rect width="10.5469" height="24.7817" transform="matrix(0 -1 -1 0 1117.05 189.329)" fill="white"/>
<rect width="10.5469" height="24.7817" transform="matrix(0 -1 -1 0 1151.47 189.329)" fill="white"/>
<rect width="10.5469" height="24.7817" transform="matrix(0 -1 -1 0 1185.89 189.329)" fill="white"/>
<rect width="10.5469" height="24.7817" transform="matrix(0 -1 -1 0 1220.31 189.329)" fill="white"/>
<rect width="10.5469" height="24.7817" transform="matrix(0 -1 -1 0 1254.73 189.329)" fill="white"/>
<rect width="10.5469" height="24.7817" transform="matrix(0 -1 -1 0 1289.15 189.329)" fill="white"/>
<rect width="10.5469" height="24.7817" transform="matrix(0 -1 -1 0 1364.87 10.7852)" fill="white"/>
<rect width="10.5469" height="24.7817" transform="matrix(0 -1 -1 0 1399.29 10.7852)" fill="white"/>
<rect width="10.5469" height="24.7817" transform="matrix(0 -1 -1 0 1433.71 10.7852)" fill="white"/>
<rect width="10.5469" height="24.7817" transform="matrix(0 -1 -1 0 1468.13 10.7852)" fill="white"/>
<rect width="10.5469" height="24.7817" transform="matrix(0 -1 -1 0 1502.55 10.7852)" fill="white"/>
<rect width="10.5469" height="24.7817" transform="matrix(0 -1 -1 0 848.586 10.7852)" fill="white"/>
<rect width="10.5469" height="24.7817" transform="matrix(0 -1 -1 0 676.489 10.7852)" fill="white"/>
<rect width="10.5469" height="24.7817" transform="matrix(0 -1 -1 0 710.908 10.7852)" fill="white"/>
<rect width="10.5469" height="24.7817" transform="matrix(0 -1 -1 0 745.328 10.7852)" fill="white"/>
<rect width="10.5469" height="24.7817" transform="matrix(0 -1 -1 0 779.747 10.7852)" fill="white"/>
<rect width="10.5469" height="24.7817" transform="matrix(0 -1 -1 0 814.167 10.7852)" fill="white"/>
<rect width="10.5469" height="24.7817" transform="matrix(0 -1 -1 0 1089.52 10.7844)" fill="white"/>
<rect width="10.5469" height="24.7817" transform="matrix(0 -1 -1 0 883.003 10.7852)" fill="white"/>
<rect width="10.5469" height="24.7817" transform="matrix(0 -1 -1 0 917.423 10.7852)" fill="white"/>
<rect width="10.5469" height="24.7817" transform="matrix(0 -1 -1 0 951.842 10.7852)" fill="white"/>
<rect width="10.5469" height="24.7817" transform="matrix(0 -1 -1 0 986.262 10.7852)" fill="white"/>
<rect width="10.5469" height="24.7817" transform="matrix(0 -1 -1 0 1020.68 10.7852)" fill="white"/>
<rect width="10.5469" height="24.7817" transform="matrix(0 -1 -1 0 1055.1 10.7852)" fill="white"/>
<rect width="10.5469" height="24.7817" transform="matrix(0 -1 -1 0 1330.45 10.7844)" fill="white"/>
<rect width="10.5469" height="24.7817" transform="matrix(0 -1 -1 0 1123.94 10.7852)" fill="white"/>
<rect width="10.5469" height="24.7817" transform="matrix(0 -1 -1 0 1158.36 10.7844)" fill="white"/>
<rect width="10.5469" height="24.7817" transform="matrix(0 -1 -1 0 1192.78 10.7852)" fill="white"/>
<rect width="10.5469" height="24.7817" transform="matrix(0 -1 -1 0 1227.2 10.7852)" fill="white"/>
<rect width="10.5469" height="24.7817" transform="matrix(0 -1 -1 0 1261.61 10.7852)" fill="white"/>
<rect width="10.5469" height="24.7817" transform="matrix(0 -1 -1 0 1296.03 10.7852)" fill="white"/>
<rect width="18.8337" height="927.938" transform="matrix(0 -1 -1 0 1579.65 104.2)" fill="white"/>
<path d="M1661.28 132.823H1642.01V128.303H1630.31V132.823H1609.65L1642.01 109.469H1661.28V113.236H1668.86L1675.74 109.469H1694.33L1661.28 132.823Z" fill="white"/>
<path d="M1642.7 174.633H1620.67V157.306H1613.1V174.633H1586.94V153.163L1598.64 137.719H1620.67V141.109H1631.68L1635.81 137.719H1657.15L1643.38 156.176L1642.7 174.633Z" fill="white"/>
<path d="M1586.94 132.822H1567.66V128.302H1555.96V132.822H1535.31L1567.66 109.468H1586.94V113.235H1594.51L1601.4 109.468H1619.98L1586.94 132.822Z" fill="white"/>
<path d="M1568.35 174.633H1546.32V157.306H1538.75V174.633H1512.59V153.163L1524.3 137.719H1546.32V141.109H1557.34L1561.47 137.719H1582.81L1569.04 156.176L1568.35 174.633Z" fill="white"/>
<path d="M1874.68 132.822H1855.41V128.302H1843.71V132.822H1823.06L1855.41 109.468H1874.68V113.235H1882.26L1889.14 109.468H1907.73L1874.68 132.822Z" fill="white"/>
<path d="M1856.1 174.633H1834.07V157.306H1826.5V174.633H1800.34V153.163L1812.04 137.719H1834.07V141.109H1845.08L1849.21 137.719H1870.55L1856.79 156.176L1856.1 174.633Z" fill="white"/>
<path d="M1731.5 132.822H1712.23V128.302H1700.52V132.822H1679.87L1712.23 109.468H1731.5V113.235H1739.07L1745.96 109.468H1764.54L1731.5 132.822Z" fill="white"/>
<path d="M1712.91 174.634H1690.89V157.307H1683.31V174.634H1657.15V153.163L1668.86 137.719H1690.89V141.109H1701.9L1706.03 137.719H1727.37L1713.6 156.176L1712.91 174.634Z" fill="white"/>
<path d="M1800.34 132.822H1781.06V128.302H1769.36V132.822H1748.71L1781.06 109.468H1800.34V113.235H1807.91L1814.79 109.468H1833.38L1800.34 132.822Z" fill="white"/>
<path d="M1781.75 174.634H1759.72V157.307H1752.15V174.634H1725.99V153.163L1737.69 137.719H1759.72V141.109H1770.74L1774.87 137.719H1796.21L1782.44 156.176L1781.75 174.634Z" fill="white"/>
<path d="M1946.28 132.823H1927V128.303H1915.3V132.823H1894.65L1927 109.469H1946.28V113.236H1953.85L1960.73 109.469H1979.32L1946.28 132.823Z" fill="white"/>
<path d="M1927.69 174.633H1905.66V157.306H1898.09V174.633H1871.93V153.163L1883.63 137.719H1905.66V141.109H1916.67L1920.8 137.719H1942.14L1928.38 156.176L1927.69 174.633Z" fill="white"/>
<path d="M1657.84 57.864H1638.57V62.3841H1626.86V57.864H1606.21L1638.57 81.2179H1657.84V77.4511H1665.41L1672.3 81.2179H1690.88L1657.84 57.864Z" fill="white"/>
<path d="M1639.25 16.0535L1617.23 16.0535V33.3805H1609.65V16.0535L1583.5 16.0535V37.5239L1595.2 52.9676H1617.23V49.5775H1628.24L1632.37 52.9676L1653.71 52.9676L1639.94 34.5105L1639.25 16.0535Z" fill="white"/>
<path d="M1583.5 57.864H1564.22V62.3841H1552.52V57.864H1531.87L1564.22 81.2179H1583.5V77.4511H1591.07L1597.95 81.2179H1616.54L1583.5 57.864Z" fill="white"/>
<path d="M1564.91 16.0535L1542.88 16.0535V33.3805H1535.31V16.0535L1509.15 16.0535V37.5239L1520.85 52.9676H1542.88V49.5775H1553.9L1558.03 52.9676L1579.37 52.9676L1565.6 34.5105L1564.91 16.0535Z" fill="white"/>
<path d="M1871.24 57.864H1851.97V62.3841H1840.27V57.864H1819.61L1851.97 81.2179H1871.24V77.4511H1878.82L1885.7 81.2179H1904.29L1871.24 57.864Z" fill="white"/>
<path d="M1852.66 16.0535L1830.63 16.0535V33.3805H1823.06V16.0535L1796.9 16.0535V37.5239L1808.6 52.9676H1830.63V49.5775H1841.64L1845.77 52.9676L1867.11 52.9676L1853.34 34.5105L1852.66 16.0535Z" fill="white"/>
<path d="M1728.06 57.864H1708.78V62.3841H1697.08V57.864H1676.43L1708.78 81.2179H1728.06V77.4511H1735.63L1742.52 81.2179H1761.1L1728.06 57.864Z" fill="white"/>
<path d="M1709.47 16.0535L1687.44 16.0535V33.3805H1679.87V16.0535L1653.71 16.0535V37.5239L1665.42 52.9676H1687.44V49.5775H1698.46L1702.59 52.9676L1723.93 52.9676L1710.16 34.5105L1709.47 16.0535Z" fill="white"/>
<path d="M1796.9 57.8647H1777.62V62.3848H1765.92V57.8647H1745.27L1777.62 81.2186H1796.9V77.4518H1804.47L1811.35 81.2186H1829.94L1796.9 57.8647Z" fill="white"/>
<path d="M1778.31 16.0535L1756.28 16.0535V33.3805H1748.71V16.0535L1722.55 16.0535V37.5239L1734.25 52.9676H1756.28V49.5775H1767.29L1771.42 52.9676L1792.76 52.9676L1779 34.5105L1778.31 16.0535Z" fill="white"/>
<path d="M1942.83 57.864H1923.56V62.3841H1911.86V57.864H1891.21L1923.56 81.2179H1942.83V77.4511H1950.41L1957.29 81.2179H1975.88L1942.83 57.864Z" fill="white"/>
<path d="M1924.25 16.0535L1902.22 16.0535V33.3805H1894.65V16.0535L1868.49 16.0535V37.5239L1880.19 52.9676H1902.22V49.5775H1913.23L1917.36 52.9676L1938.7 52.9676L1924.94 34.5105L1924.25 16.0535Z" fill="white"/>
<rect width="10.5469" height="24.7817" transform="matrix(0 -1 -1 0 1631 189.7)" fill="white"/>
<rect width="10.5469" height="24.7817" transform="matrix(0 -1 -1 0 1527.74 189.701)" fill="white"/>
<rect width="10.5469" height="24.7817" transform="matrix(0 -1 -1 0 1562.16 189.7)" fill="white"/>
<rect width="10.5469" height="24.7817" transform="matrix(0 -1 -1 0 1596.58 189.701)" fill="white"/>
<rect width="10.5469" height="24.7817" transform="matrix(0 -1 -1 0 1871.93 189.7)" fill="white"/>
<rect width="10.5469" height="24.7817" transform="matrix(0 -1 -1 0 1665.41 189.701)" fill="white"/>
<rect width="10.5469" height="24.7817" transform="matrix(0 -1 -1 0 1699.83 189.7)" fill="white"/>
<rect width="10.5469" height="24.7817" transform="matrix(0 -1 -1 0 1734.25 189.7)" fill="white"/>
<rect width="10.5469" height="24.7817" transform="matrix(0 -1 -1 0 1768.67 189.701)" fill="white"/>
<rect width="10.5469" height="24.7817" transform="matrix(0 -1 -1 0 1803.09 189.7)" fill="white"/>
<rect width="10.5469" height="24.7817" transform="matrix(0 -1 -1 0 1837.51 189.701)" fill="white"/>
<rect width="10.5469" height="24.7817" transform="matrix(0 -1 -1 0 1906.35 189.701)" fill="white"/>
<rect width="10.5469" height="24.7817" transform="matrix(0 -1 -1 0 1940.77 189.7)" fill="white"/>
<rect width="10.5469" height="24.7817" transform="matrix(0 -1 -1 0 1637.88 11.157)" fill="white"/>
<rect width="10.5469" height="24.7817" transform="matrix(0 -1 -1 0 1534.62 11.157)" fill="white"/>
<rect width="10.5469" height="24.7817" transform="matrix(0 -1 -1 0 1569.04 11.157)" fill="white"/>
<rect width="10.5469" height="24.7817" transform="matrix(0 -1 -1 0 1603.46 11.157)" fill="white"/>
<rect width="10.5469" height="24.7817" transform="matrix(0 -1 -1 0 1878.81 11.157)" fill="white"/>
<rect width="10.5469" height="24.7817" transform="matrix(0 -1 -1 0 1672.3 11.157)" fill="white"/>
<rect width="10.5469" height="24.7817" transform="matrix(0 -1 -1 0 1706.72 11.157)" fill="white"/>
<rect width="10.5469" height="24.7817" transform="matrix(0 -1 -1 0 1741.14 11.157)" fill="white"/>
<rect width="10.5469" height="24.7817" transform="matrix(0 -1 -1 0 1775.56 11.157)" fill="white"/>
<rect width="10.5469" height="24.7817" transform="matrix(0 -1 -1 0 1809.98 11.157)" fill="white"/>
<rect width="10.5469" height="24.7817" transform="matrix(0 -1 -1 0 1844.39 11.157)" fill="white"/>
<rect width="10.5469" height="24.7817" transform="matrix(0 -1 -1 0 1913.23 11.157)" fill="white"/>
<rect width="18.9091" height="857.597" transform="matrix(0 -1 -1 0 2367.33 104.113)" fill="white"/>
</svg>
